%TF.GenerationSoftware,KiCad,Pcbnew,9.0.0*%
%TF.CreationDate,2025-03-28T21:42:01+04:00*%
%TF.ProjectId,ravan-motor-driver,72617661-6e2d-46d6-9f74-6f722d647269,rev?*%
%TF.SameCoordinates,Original*%
%TF.FileFunction,Legend,Top*%
%TF.FilePolarity,Positive*%
%FSLAX46Y46*%
G04 Gerber Fmt 4.6, Leading zero omitted, Abs format (unit mm)*
G04 Created by KiCad (PCBNEW 9.0.0) date 2025-03-28 21:42:01*
%MOMM*%
%LPD*%
G01*
G04 APERTURE LIST*
%ADD10C,0.100000*%
%ADD11C,0.150000*%
%ADD12C,0.300000*%
%ADD13C,0.400000*%
%ADD14C,0.120000*%
G04 APERTURE END LIST*
D10*
D11*
X177002200Y-166007200D02*
X285002200Y-166007200D01*
X285002200Y-198007200D01*
X177002200Y-198007200D01*
X177002200Y-166007200D01*
D10*
D11*
X10000000Y-10000000D02*
X287002200Y-10000000D01*
X287002200Y-200007200D01*
X10000000Y-200007200D01*
X10000000Y-10000000D01*
D10*
D11*
X12000000Y-12000000D02*
X285002200Y-12000000D01*
X285002200Y-198007200D01*
X12000000Y-198007200D01*
X12000000Y-12000000D01*
D10*
D11*
X60000000Y-12000000D02*
X60000000Y-10000000D01*
D10*
D11*
X110000000Y-12000000D02*
X110000000Y-10000000D01*
D10*
D11*
X160000000Y-12000000D02*
X160000000Y-10000000D01*
D10*
D11*
X210000000Y-12000000D02*
X210000000Y-10000000D01*
D10*
D11*
X260000000Y-12000000D02*
X260000000Y-10000000D01*
D10*
D11*
X36089160Y-11593604D02*
X35346303Y-11593604D01*
X35717731Y-11593604D02*
X35717731Y-10293604D01*
X35717731Y-10293604D02*
X35593922Y-10479319D01*
X35593922Y-10479319D02*
X35470112Y-10603128D01*
X35470112Y-10603128D02*
X35346303Y-10665033D01*
D10*
D11*
X85346303Y-10417414D02*
X85408207Y-10355509D01*
X85408207Y-10355509D02*
X85532017Y-10293604D01*
X85532017Y-10293604D02*
X85841541Y-10293604D01*
X85841541Y-10293604D02*
X85965350Y-10355509D01*
X85965350Y-10355509D02*
X86027255Y-10417414D01*
X86027255Y-10417414D02*
X86089160Y-10541223D01*
X86089160Y-10541223D02*
X86089160Y-10665033D01*
X86089160Y-10665033D02*
X86027255Y-10850747D01*
X86027255Y-10850747D02*
X85284398Y-11593604D01*
X85284398Y-11593604D02*
X86089160Y-11593604D01*
D10*
D11*
X135284398Y-10293604D02*
X136089160Y-10293604D01*
X136089160Y-10293604D02*
X135655826Y-10788842D01*
X135655826Y-10788842D02*
X135841541Y-10788842D01*
X135841541Y-10788842D02*
X135965350Y-10850747D01*
X135965350Y-10850747D02*
X136027255Y-10912652D01*
X136027255Y-10912652D02*
X136089160Y-11036461D01*
X136089160Y-11036461D02*
X136089160Y-11345985D01*
X136089160Y-11345985D02*
X136027255Y-11469795D01*
X136027255Y-11469795D02*
X135965350Y-11531700D01*
X135965350Y-11531700D02*
X135841541Y-11593604D01*
X135841541Y-11593604D02*
X135470112Y-11593604D01*
X135470112Y-11593604D02*
X135346303Y-11531700D01*
X135346303Y-11531700D02*
X135284398Y-11469795D01*
D10*
D11*
X185965350Y-10726938D02*
X185965350Y-11593604D01*
X185655826Y-10231700D02*
X185346303Y-11160271D01*
X185346303Y-11160271D02*
X186151064Y-11160271D01*
D10*
D11*
X236027255Y-10293604D02*
X235408207Y-10293604D01*
X235408207Y-10293604D02*
X235346303Y-10912652D01*
X235346303Y-10912652D02*
X235408207Y-10850747D01*
X235408207Y-10850747D02*
X235532017Y-10788842D01*
X235532017Y-10788842D02*
X235841541Y-10788842D01*
X235841541Y-10788842D02*
X235965350Y-10850747D01*
X235965350Y-10850747D02*
X236027255Y-10912652D01*
X236027255Y-10912652D02*
X236089160Y-11036461D01*
X236089160Y-11036461D02*
X236089160Y-11345985D01*
X236089160Y-11345985D02*
X236027255Y-11469795D01*
X236027255Y-11469795D02*
X235965350Y-11531700D01*
X235965350Y-11531700D02*
X235841541Y-11593604D01*
X235841541Y-11593604D02*
X235532017Y-11593604D01*
X235532017Y-11593604D02*
X235408207Y-11531700D01*
X235408207Y-11531700D02*
X235346303Y-11469795D01*
D10*
D11*
X285965350Y-10293604D02*
X285717731Y-10293604D01*
X285717731Y-10293604D02*
X285593922Y-10355509D01*
X285593922Y-10355509D02*
X285532017Y-10417414D01*
X285532017Y-10417414D02*
X285408207Y-10603128D01*
X285408207Y-10603128D02*
X285346303Y-10850747D01*
X285346303Y-10850747D02*
X285346303Y-11345985D01*
X285346303Y-11345985D02*
X285408207Y-11469795D01*
X285408207Y-11469795D02*
X285470112Y-11531700D01*
X285470112Y-11531700D02*
X285593922Y-11593604D01*
X285593922Y-11593604D02*
X285841541Y-11593604D01*
X285841541Y-11593604D02*
X285965350Y-11531700D01*
X285965350Y-11531700D02*
X286027255Y-11469795D01*
X286027255Y-11469795D02*
X286089160Y-11345985D01*
X286089160Y-11345985D02*
X286089160Y-11036461D01*
X286089160Y-11036461D02*
X286027255Y-10912652D01*
X286027255Y-10912652D02*
X285965350Y-10850747D01*
X285965350Y-10850747D02*
X285841541Y-10788842D01*
X285841541Y-10788842D02*
X285593922Y-10788842D01*
X285593922Y-10788842D02*
X285470112Y-10850747D01*
X285470112Y-10850747D02*
X285408207Y-10912652D01*
X285408207Y-10912652D02*
X285346303Y-11036461D01*
D10*
D11*
X60000000Y-198007200D02*
X60000000Y-200007200D01*
D10*
D11*
X110000000Y-198007200D02*
X110000000Y-200007200D01*
D10*
D11*
X160000000Y-198007200D02*
X160000000Y-200007200D01*
D10*
D11*
X210000000Y-198007200D02*
X210000000Y-200007200D01*
D10*
D11*
X260000000Y-198007200D02*
X260000000Y-200007200D01*
D10*
D11*
X36089160Y-199600804D02*
X35346303Y-199600804D01*
X35717731Y-199600804D02*
X35717731Y-198300804D01*
X35717731Y-198300804D02*
X35593922Y-198486519D01*
X35593922Y-198486519D02*
X35470112Y-198610328D01*
X35470112Y-198610328D02*
X35346303Y-198672233D01*
D10*
D11*
X85346303Y-198424614D02*
X85408207Y-198362709D01*
X85408207Y-198362709D02*
X85532017Y-198300804D01*
X85532017Y-198300804D02*
X85841541Y-198300804D01*
X85841541Y-198300804D02*
X85965350Y-198362709D01*
X85965350Y-198362709D02*
X86027255Y-198424614D01*
X86027255Y-198424614D02*
X86089160Y-198548423D01*
X86089160Y-198548423D02*
X86089160Y-198672233D01*
X86089160Y-198672233D02*
X86027255Y-198857947D01*
X86027255Y-198857947D02*
X85284398Y-199600804D01*
X85284398Y-199600804D02*
X86089160Y-199600804D01*
D10*
D11*
X135284398Y-198300804D02*
X136089160Y-198300804D01*
X136089160Y-198300804D02*
X135655826Y-198796042D01*
X135655826Y-198796042D02*
X135841541Y-198796042D01*
X135841541Y-198796042D02*
X135965350Y-198857947D01*
X135965350Y-198857947D02*
X136027255Y-198919852D01*
X136027255Y-198919852D02*
X136089160Y-199043661D01*
X136089160Y-199043661D02*
X136089160Y-199353185D01*
X136089160Y-199353185D02*
X136027255Y-199476995D01*
X136027255Y-199476995D02*
X135965350Y-199538900D01*
X135965350Y-199538900D02*
X135841541Y-199600804D01*
X135841541Y-199600804D02*
X135470112Y-199600804D01*
X135470112Y-199600804D02*
X135346303Y-199538900D01*
X135346303Y-199538900D02*
X135284398Y-199476995D01*
D10*
D11*
X185965350Y-198734138D02*
X185965350Y-199600804D01*
X185655826Y-198238900D02*
X185346303Y-199167471D01*
X185346303Y-199167471D02*
X186151064Y-199167471D01*
D10*
D11*
X236027255Y-198300804D02*
X235408207Y-198300804D01*
X235408207Y-198300804D02*
X235346303Y-198919852D01*
X235346303Y-198919852D02*
X235408207Y-198857947D01*
X235408207Y-198857947D02*
X235532017Y-198796042D01*
X235532017Y-198796042D02*
X235841541Y-198796042D01*
X235841541Y-198796042D02*
X235965350Y-198857947D01*
X235965350Y-198857947D02*
X236027255Y-198919852D01*
X236027255Y-198919852D02*
X236089160Y-199043661D01*
X236089160Y-199043661D02*
X236089160Y-199353185D01*
X236089160Y-199353185D02*
X236027255Y-199476995D01*
X236027255Y-199476995D02*
X235965350Y-199538900D01*
X235965350Y-199538900D02*
X235841541Y-199600804D01*
X235841541Y-199600804D02*
X235532017Y-199600804D01*
X235532017Y-199600804D02*
X235408207Y-199538900D01*
X235408207Y-199538900D02*
X235346303Y-199476995D01*
D10*
D11*
X285965350Y-198300804D02*
X285717731Y-198300804D01*
X285717731Y-198300804D02*
X285593922Y-198362709D01*
X285593922Y-198362709D02*
X285532017Y-198424614D01*
X285532017Y-198424614D02*
X285408207Y-198610328D01*
X285408207Y-198610328D02*
X285346303Y-198857947D01*
X285346303Y-198857947D02*
X285346303Y-199353185D01*
X285346303Y-199353185D02*
X285408207Y-199476995D01*
X285408207Y-199476995D02*
X285470112Y-199538900D01*
X285470112Y-199538900D02*
X285593922Y-199600804D01*
X285593922Y-199600804D02*
X285841541Y-199600804D01*
X285841541Y-199600804D02*
X285965350Y-199538900D01*
X285965350Y-199538900D02*
X286027255Y-199476995D01*
X286027255Y-199476995D02*
X286089160Y-199353185D01*
X286089160Y-199353185D02*
X286089160Y-199043661D01*
X286089160Y-199043661D02*
X286027255Y-198919852D01*
X286027255Y-198919852D02*
X285965350Y-198857947D01*
X285965350Y-198857947D02*
X285841541Y-198796042D01*
X285841541Y-198796042D02*
X285593922Y-198796042D01*
X285593922Y-198796042D02*
X285470112Y-198857947D01*
X285470112Y-198857947D02*
X285408207Y-198919852D01*
X285408207Y-198919852D02*
X285346303Y-199043661D01*
D10*
D11*
X10000000Y-60000000D02*
X12000000Y-60000000D01*
D10*
D11*
X10000000Y-110000000D02*
X12000000Y-110000000D01*
D10*
D11*
X10000000Y-160000000D02*
X12000000Y-160000000D01*
D10*
D11*
X10690476Y-35222176D02*
X11309523Y-35222176D01*
X10566666Y-35593604D02*
X10999999Y-34293604D01*
X10999999Y-34293604D02*
X11433333Y-35593604D01*
D10*
D11*
X11092857Y-84912652D02*
X11278571Y-84974557D01*
X11278571Y-84974557D02*
X11340476Y-85036461D01*
X11340476Y-85036461D02*
X11402380Y-85160271D01*
X11402380Y-85160271D02*
X11402380Y-85345985D01*
X11402380Y-85345985D02*
X11340476Y-85469795D01*
X11340476Y-85469795D02*
X11278571Y-85531700D01*
X11278571Y-85531700D02*
X11154761Y-85593604D01*
X11154761Y-85593604D02*
X10659523Y-85593604D01*
X10659523Y-85593604D02*
X10659523Y-84293604D01*
X10659523Y-84293604D02*
X11092857Y-84293604D01*
X11092857Y-84293604D02*
X11216666Y-84355509D01*
X11216666Y-84355509D02*
X11278571Y-84417414D01*
X11278571Y-84417414D02*
X11340476Y-84541223D01*
X11340476Y-84541223D02*
X11340476Y-84665033D01*
X11340476Y-84665033D02*
X11278571Y-84788842D01*
X11278571Y-84788842D02*
X11216666Y-84850747D01*
X11216666Y-84850747D02*
X11092857Y-84912652D01*
X11092857Y-84912652D02*
X10659523Y-84912652D01*
D10*
D11*
X11402380Y-135469795D02*
X11340476Y-135531700D01*
X11340476Y-135531700D02*
X11154761Y-135593604D01*
X11154761Y-135593604D02*
X11030952Y-135593604D01*
X11030952Y-135593604D02*
X10845238Y-135531700D01*
X10845238Y-135531700D02*
X10721428Y-135407890D01*
X10721428Y-135407890D02*
X10659523Y-135284080D01*
X10659523Y-135284080D02*
X10597619Y-135036461D01*
X10597619Y-135036461D02*
X10597619Y-134850747D01*
X10597619Y-134850747D02*
X10659523Y-134603128D01*
X10659523Y-134603128D02*
X10721428Y-134479319D01*
X10721428Y-134479319D02*
X10845238Y-134355509D01*
X10845238Y-134355509D02*
X11030952Y-134293604D01*
X11030952Y-134293604D02*
X11154761Y-134293604D01*
X11154761Y-134293604D02*
X11340476Y-134355509D01*
X11340476Y-134355509D02*
X11402380Y-134417414D01*
D10*
D11*
X10659523Y-185593604D02*
X10659523Y-184293604D01*
X10659523Y-184293604D02*
X10969047Y-184293604D01*
X10969047Y-184293604D02*
X11154761Y-184355509D01*
X11154761Y-184355509D02*
X11278571Y-184479319D01*
X11278571Y-184479319D02*
X11340476Y-184603128D01*
X11340476Y-184603128D02*
X11402380Y-184850747D01*
X11402380Y-184850747D02*
X11402380Y-185036461D01*
X11402380Y-185036461D02*
X11340476Y-185284080D01*
X11340476Y-185284080D02*
X11278571Y-185407890D01*
X11278571Y-185407890D02*
X11154761Y-185531700D01*
X11154761Y-185531700D02*
X10969047Y-185593604D01*
X10969047Y-185593604D02*
X10659523Y-185593604D01*
D10*
D11*
X287002200Y-60000000D02*
X285002200Y-60000000D01*
D10*
D11*
X287002200Y-110000000D02*
X285002200Y-110000000D01*
D10*
D11*
X287002200Y-160000000D02*
X285002200Y-160000000D01*
D10*
D11*
X285692676Y-35222176D02*
X286311723Y-35222176D01*
X285568866Y-35593604D02*
X286002199Y-34293604D01*
X286002199Y-34293604D02*
X286435533Y-35593604D01*
D10*
D11*
X286095057Y-84912652D02*
X286280771Y-84974557D01*
X286280771Y-84974557D02*
X286342676Y-85036461D01*
X286342676Y-85036461D02*
X286404580Y-85160271D01*
X286404580Y-85160271D02*
X286404580Y-85345985D01*
X286404580Y-85345985D02*
X286342676Y-85469795D01*
X286342676Y-85469795D02*
X286280771Y-85531700D01*
X286280771Y-85531700D02*
X286156961Y-85593604D01*
X286156961Y-85593604D02*
X285661723Y-85593604D01*
X285661723Y-85593604D02*
X285661723Y-84293604D01*
X285661723Y-84293604D02*
X286095057Y-84293604D01*
X286095057Y-84293604D02*
X286218866Y-84355509D01*
X286218866Y-84355509D02*
X286280771Y-84417414D01*
X286280771Y-84417414D02*
X286342676Y-84541223D01*
X286342676Y-84541223D02*
X286342676Y-84665033D01*
X286342676Y-84665033D02*
X286280771Y-84788842D01*
X286280771Y-84788842D02*
X286218866Y-84850747D01*
X286218866Y-84850747D02*
X286095057Y-84912652D01*
X286095057Y-84912652D02*
X285661723Y-84912652D01*
D10*
D11*
X286404580Y-135469795D02*
X286342676Y-135531700D01*
X286342676Y-135531700D02*
X286156961Y-135593604D01*
X286156961Y-135593604D02*
X286033152Y-135593604D01*
X286033152Y-135593604D02*
X285847438Y-135531700D01*
X285847438Y-135531700D02*
X285723628Y-135407890D01*
X285723628Y-135407890D02*
X285661723Y-135284080D01*
X285661723Y-135284080D02*
X285599819Y-135036461D01*
X285599819Y-135036461D02*
X285599819Y-134850747D01*
X285599819Y-134850747D02*
X285661723Y-134603128D01*
X285661723Y-134603128D02*
X285723628Y-134479319D01*
X285723628Y-134479319D02*
X285847438Y-134355509D01*
X285847438Y-134355509D02*
X286033152Y-134293604D01*
X286033152Y-134293604D02*
X286156961Y-134293604D01*
X286156961Y-134293604D02*
X286342676Y-134355509D01*
X286342676Y-134355509D02*
X286404580Y-134417414D01*
D10*
D11*
X285661723Y-185593604D02*
X285661723Y-184293604D01*
X285661723Y-184293604D02*
X285971247Y-184293604D01*
X285971247Y-184293604D02*
X286156961Y-184355509D01*
X286156961Y-184355509D02*
X286280771Y-184479319D01*
X286280771Y-184479319D02*
X286342676Y-184603128D01*
X286342676Y-184603128D02*
X286404580Y-184850747D01*
X286404580Y-184850747D02*
X286404580Y-185036461D01*
X286404580Y-185036461D02*
X286342676Y-185284080D01*
X286342676Y-185284080D02*
X286280771Y-185407890D01*
X286280771Y-185407890D02*
X286156961Y-185531700D01*
X286156961Y-185531700D02*
X285971247Y-185593604D01*
X285971247Y-185593604D02*
X285661723Y-185593604D01*
D10*
D11*
X200458026Y-193793328D02*
X200458026Y-192293328D01*
X200458026Y-192293328D02*
X200815169Y-192293328D01*
X200815169Y-192293328D02*
X201029455Y-192364757D01*
X201029455Y-192364757D02*
X201172312Y-192507614D01*
X201172312Y-192507614D02*
X201243741Y-192650471D01*
X201243741Y-192650471D02*
X201315169Y-192936185D01*
X201315169Y-192936185D02*
X201315169Y-193150471D01*
X201315169Y-193150471D02*
X201243741Y-193436185D01*
X201243741Y-193436185D02*
X201172312Y-193579042D01*
X201172312Y-193579042D02*
X201029455Y-193721900D01*
X201029455Y-193721900D02*
X200815169Y-193793328D01*
X200815169Y-193793328D02*
X200458026Y-193793328D01*
X202600884Y-193793328D02*
X202600884Y-193007614D01*
X202600884Y-193007614D02*
X202529455Y-192864757D01*
X202529455Y-192864757D02*
X202386598Y-192793328D01*
X202386598Y-192793328D02*
X202100884Y-192793328D01*
X202100884Y-192793328D02*
X201958026Y-192864757D01*
X202600884Y-193721900D02*
X202458026Y-193793328D01*
X202458026Y-193793328D02*
X202100884Y-193793328D01*
X202100884Y-193793328D02*
X201958026Y-193721900D01*
X201958026Y-193721900D02*
X201886598Y-193579042D01*
X201886598Y-193579042D02*
X201886598Y-193436185D01*
X201886598Y-193436185D02*
X201958026Y-193293328D01*
X201958026Y-193293328D02*
X202100884Y-193221900D01*
X202100884Y-193221900D02*
X202458026Y-193221900D01*
X202458026Y-193221900D02*
X202600884Y-193150471D01*
X203100884Y-192793328D02*
X203672312Y-192793328D01*
X203315169Y-192293328D02*
X203315169Y-193579042D01*
X203315169Y-193579042D02*
X203386598Y-193721900D01*
X203386598Y-193721900D02*
X203529455Y-193793328D01*
X203529455Y-193793328D02*
X203672312Y-193793328D01*
X204743741Y-193721900D02*
X204600884Y-193793328D01*
X204600884Y-193793328D02*
X204315170Y-193793328D01*
X204315170Y-193793328D02*
X204172312Y-193721900D01*
X204172312Y-193721900D02*
X204100884Y-193579042D01*
X204100884Y-193579042D02*
X204100884Y-193007614D01*
X204100884Y-193007614D02*
X204172312Y-192864757D01*
X204172312Y-192864757D02*
X204315170Y-192793328D01*
X204315170Y-192793328D02*
X204600884Y-192793328D01*
X204600884Y-192793328D02*
X204743741Y-192864757D01*
X204743741Y-192864757D02*
X204815170Y-193007614D01*
X204815170Y-193007614D02*
X204815170Y-193150471D01*
X204815170Y-193150471D02*
X204100884Y-193293328D01*
X205458026Y-193650471D02*
X205529455Y-193721900D01*
X205529455Y-193721900D02*
X205458026Y-193793328D01*
X205458026Y-193793328D02*
X205386598Y-193721900D01*
X205386598Y-193721900D02*
X205458026Y-193650471D01*
X205458026Y-193650471D02*
X205458026Y-193793328D01*
X205458026Y-192864757D02*
X205529455Y-192936185D01*
X205529455Y-192936185D02*
X205458026Y-193007614D01*
X205458026Y-193007614D02*
X205386598Y-192936185D01*
X205386598Y-192936185D02*
X205458026Y-192864757D01*
X205458026Y-192864757D02*
X205458026Y-193007614D01*
D10*
D11*
X177002200Y-194507200D02*
X285002200Y-194507200D01*
D10*
D11*
X178458026Y-196593328D02*
X178458026Y-195093328D01*
X179315169Y-196593328D02*
X178672312Y-195736185D01*
X179315169Y-195093328D02*
X178458026Y-195950471D01*
X179958026Y-196593328D02*
X179958026Y-195593328D01*
X179958026Y-195093328D02*
X179886598Y-195164757D01*
X179886598Y-195164757D02*
X179958026Y-195236185D01*
X179958026Y-195236185D02*
X180029455Y-195164757D01*
X180029455Y-195164757D02*
X179958026Y-195093328D01*
X179958026Y-195093328D02*
X179958026Y-195236185D01*
X181529455Y-196450471D02*
X181458027Y-196521900D01*
X181458027Y-196521900D02*
X181243741Y-196593328D01*
X181243741Y-196593328D02*
X181100884Y-196593328D01*
X181100884Y-196593328D02*
X180886598Y-196521900D01*
X180886598Y-196521900D02*
X180743741Y-196379042D01*
X180743741Y-196379042D02*
X180672312Y-196236185D01*
X180672312Y-196236185D02*
X180600884Y-195950471D01*
X180600884Y-195950471D02*
X180600884Y-195736185D01*
X180600884Y-195736185D02*
X180672312Y-195450471D01*
X180672312Y-195450471D02*
X180743741Y-195307614D01*
X180743741Y-195307614D02*
X180886598Y-195164757D01*
X180886598Y-195164757D02*
X181100884Y-195093328D01*
X181100884Y-195093328D02*
X181243741Y-195093328D01*
X181243741Y-195093328D02*
X181458027Y-195164757D01*
X181458027Y-195164757D02*
X181529455Y-195236185D01*
X182815170Y-196593328D02*
X182815170Y-195807614D01*
X182815170Y-195807614D02*
X182743741Y-195664757D01*
X182743741Y-195664757D02*
X182600884Y-195593328D01*
X182600884Y-195593328D02*
X182315170Y-195593328D01*
X182315170Y-195593328D02*
X182172312Y-195664757D01*
X182815170Y-196521900D02*
X182672312Y-196593328D01*
X182672312Y-196593328D02*
X182315170Y-196593328D01*
X182315170Y-196593328D02*
X182172312Y-196521900D01*
X182172312Y-196521900D02*
X182100884Y-196379042D01*
X182100884Y-196379042D02*
X182100884Y-196236185D01*
X182100884Y-196236185D02*
X182172312Y-196093328D01*
X182172312Y-196093328D02*
X182315170Y-196021900D01*
X182315170Y-196021900D02*
X182672312Y-196021900D01*
X182672312Y-196021900D02*
X182815170Y-195950471D01*
X184172313Y-196593328D02*
X184172313Y-195093328D01*
X184172313Y-196521900D02*
X184029455Y-196593328D01*
X184029455Y-196593328D02*
X183743741Y-196593328D01*
X183743741Y-196593328D02*
X183600884Y-196521900D01*
X183600884Y-196521900D02*
X183529455Y-196450471D01*
X183529455Y-196450471D02*
X183458027Y-196307614D01*
X183458027Y-196307614D02*
X183458027Y-195879042D01*
X183458027Y-195879042D02*
X183529455Y-195736185D01*
X183529455Y-195736185D02*
X183600884Y-195664757D01*
X183600884Y-195664757D02*
X183743741Y-195593328D01*
X183743741Y-195593328D02*
X184029455Y-195593328D01*
X184029455Y-195593328D02*
X184172313Y-195664757D01*
X186029455Y-195807614D02*
X186529455Y-195807614D01*
X186743741Y-196593328D02*
X186029455Y-196593328D01*
X186029455Y-196593328D02*
X186029455Y-195093328D01*
X186029455Y-195093328D02*
X186743741Y-195093328D01*
X187386598Y-196450471D02*
X187458027Y-196521900D01*
X187458027Y-196521900D02*
X187386598Y-196593328D01*
X187386598Y-196593328D02*
X187315170Y-196521900D01*
X187315170Y-196521900D02*
X187386598Y-196450471D01*
X187386598Y-196450471D02*
X187386598Y-196593328D01*
X188100884Y-196593328D02*
X188100884Y-195093328D01*
X188100884Y-195093328D02*
X188458027Y-195093328D01*
X188458027Y-195093328D02*
X188672313Y-195164757D01*
X188672313Y-195164757D02*
X188815170Y-195307614D01*
X188815170Y-195307614D02*
X188886599Y-195450471D01*
X188886599Y-195450471D02*
X188958027Y-195736185D01*
X188958027Y-195736185D02*
X188958027Y-195950471D01*
X188958027Y-195950471D02*
X188886599Y-196236185D01*
X188886599Y-196236185D02*
X188815170Y-196379042D01*
X188815170Y-196379042D02*
X188672313Y-196521900D01*
X188672313Y-196521900D02*
X188458027Y-196593328D01*
X188458027Y-196593328D02*
X188100884Y-196593328D01*
X189600884Y-196450471D02*
X189672313Y-196521900D01*
X189672313Y-196521900D02*
X189600884Y-196593328D01*
X189600884Y-196593328D02*
X189529456Y-196521900D01*
X189529456Y-196521900D02*
X189600884Y-196450471D01*
X189600884Y-196450471D02*
X189600884Y-196593328D01*
X190243742Y-196164757D02*
X190958028Y-196164757D01*
X190100885Y-196593328D02*
X190600885Y-195093328D01*
X190600885Y-195093328D02*
X191100885Y-196593328D01*
X191600884Y-196450471D02*
X191672313Y-196521900D01*
X191672313Y-196521900D02*
X191600884Y-196593328D01*
X191600884Y-196593328D02*
X191529456Y-196521900D01*
X191529456Y-196521900D02*
X191600884Y-196450471D01*
X191600884Y-196450471D02*
X191600884Y-196593328D01*
X193529456Y-196593328D02*
X193815170Y-196593328D01*
X193815170Y-196593328D02*
X193958027Y-196521900D01*
X193958027Y-196521900D02*
X194029456Y-196450471D01*
X194029456Y-196450471D02*
X194172313Y-196236185D01*
X194172313Y-196236185D02*
X194243742Y-195950471D01*
X194243742Y-195950471D02*
X194243742Y-195379042D01*
X194243742Y-195379042D02*
X194172313Y-195236185D01*
X194172313Y-195236185D02*
X194100885Y-195164757D01*
X194100885Y-195164757D02*
X193958027Y-195093328D01*
X193958027Y-195093328D02*
X193672313Y-195093328D01*
X193672313Y-195093328D02*
X193529456Y-195164757D01*
X193529456Y-195164757D02*
X193458027Y-195236185D01*
X193458027Y-195236185D02*
X193386599Y-195379042D01*
X193386599Y-195379042D02*
X193386599Y-195736185D01*
X193386599Y-195736185D02*
X193458027Y-195879042D01*
X193458027Y-195879042D02*
X193529456Y-195950471D01*
X193529456Y-195950471D02*
X193672313Y-196021900D01*
X193672313Y-196021900D02*
X193958027Y-196021900D01*
X193958027Y-196021900D02*
X194100885Y-195950471D01*
X194100885Y-195950471D02*
X194172313Y-195879042D01*
X194172313Y-195879042D02*
X194243742Y-195736185D01*
X194886598Y-196450471D02*
X194958027Y-196521900D01*
X194958027Y-196521900D02*
X194886598Y-196593328D01*
X194886598Y-196593328D02*
X194815170Y-196521900D01*
X194815170Y-196521900D02*
X194886598Y-196450471D01*
X194886598Y-196450471D02*
X194886598Y-196593328D01*
X195886599Y-195093328D02*
X196029456Y-195093328D01*
X196029456Y-195093328D02*
X196172313Y-195164757D01*
X196172313Y-195164757D02*
X196243742Y-195236185D01*
X196243742Y-195236185D02*
X196315170Y-195379042D01*
X196315170Y-195379042D02*
X196386599Y-195664757D01*
X196386599Y-195664757D02*
X196386599Y-196021900D01*
X196386599Y-196021900D02*
X196315170Y-196307614D01*
X196315170Y-196307614D02*
X196243742Y-196450471D01*
X196243742Y-196450471D02*
X196172313Y-196521900D01*
X196172313Y-196521900D02*
X196029456Y-196593328D01*
X196029456Y-196593328D02*
X195886599Y-196593328D01*
X195886599Y-196593328D02*
X195743742Y-196521900D01*
X195743742Y-196521900D02*
X195672313Y-196450471D01*
X195672313Y-196450471D02*
X195600884Y-196307614D01*
X195600884Y-196307614D02*
X195529456Y-196021900D01*
X195529456Y-196021900D02*
X195529456Y-195664757D01*
X195529456Y-195664757D02*
X195600884Y-195379042D01*
X195600884Y-195379042D02*
X195672313Y-195236185D01*
X195672313Y-195236185D02*
X195743742Y-195164757D01*
X195743742Y-195164757D02*
X195886599Y-195093328D01*
X197029455Y-196450471D02*
X197100884Y-196521900D01*
X197100884Y-196521900D02*
X197029455Y-196593328D01*
X197029455Y-196593328D02*
X196958027Y-196521900D01*
X196958027Y-196521900D02*
X197029455Y-196450471D01*
X197029455Y-196450471D02*
X197029455Y-196593328D01*
X198029456Y-195093328D02*
X198172313Y-195093328D01*
X198172313Y-195093328D02*
X198315170Y-195164757D01*
X198315170Y-195164757D02*
X198386599Y-195236185D01*
X198386599Y-195236185D02*
X198458027Y-195379042D01*
X198458027Y-195379042D02*
X198529456Y-195664757D01*
X198529456Y-195664757D02*
X198529456Y-196021900D01*
X198529456Y-196021900D02*
X198458027Y-196307614D01*
X198458027Y-196307614D02*
X198386599Y-196450471D01*
X198386599Y-196450471D02*
X198315170Y-196521900D01*
X198315170Y-196521900D02*
X198172313Y-196593328D01*
X198172313Y-196593328D02*
X198029456Y-196593328D01*
X198029456Y-196593328D02*
X197886599Y-196521900D01*
X197886599Y-196521900D02*
X197815170Y-196450471D01*
X197815170Y-196450471D02*
X197743741Y-196307614D01*
X197743741Y-196307614D02*
X197672313Y-196021900D01*
X197672313Y-196021900D02*
X197672313Y-195664757D01*
X197672313Y-195664757D02*
X197743741Y-195379042D01*
X197743741Y-195379042D02*
X197815170Y-195236185D01*
X197815170Y-195236185D02*
X197886599Y-195164757D01*
X197886599Y-195164757D02*
X198029456Y-195093328D01*
D10*
D11*
X177002200Y-191507200D02*
X285002200Y-191507200D01*
D10*
D12*
X264413853Y-193785528D02*
X263913853Y-193071242D01*
X263556710Y-193785528D02*
X263556710Y-192285528D01*
X263556710Y-192285528D02*
X264128139Y-192285528D01*
X264128139Y-192285528D02*
X264270996Y-192356957D01*
X264270996Y-192356957D02*
X264342425Y-192428385D01*
X264342425Y-192428385D02*
X264413853Y-192571242D01*
X264413853Y-192571242D02*
X264413853Y-192785528D01*
X264413853Y-192785528D02*
X264342425Y-192928385D01*
X264342425Y-192928385D02*
X264270996Y-192999814D01*
X264270996Y-192999814D02*
X264128139Y-193071242D01*
X264128139Y-193071242D02*
X263556710Y-193071242D01*
X265628139Y-193714100D02*
X265485282Y-193785528D01*
X265485282Y-193785528D02*
X265199568Y-193785528D01*
X265199568Y-193785528D02*
X265056710Y-193714100D01*
X265056710Y-193714100D02*
X264985282Y-193571242D01*
X264985282Y-193571242D02*
X264985282Y-192999814D01*
X264985282Y-192999814D02*
X265056710Y-192856957D01*
X265056710Y-192856957D02*
X265199568Y-192785528D01*
X265199568Y-192785528D02*
X265485282Y-192785528D01*
X265485282Y-192785528D02*
X265628139Y-192856957D01*
X265628139Y-192856957D02*
X265699568Y-192999814D01*
X265699568Y-192999814D02*
X265699568Y-193142671D01*
X265699568Y-193142671D02*
X264985282Y-193285528D01*
X266199567Y-192785528D02*
X266556710Y-193785528D01*
X266556710Y-193785528D02*
X266913853Y-192785528D01*
X267485281Y-193642671D02*
X267556710Y-193714100D01*
X267556710Y-193714100D02*
X267485281Y-193785528D01*
X267485281Y-193785528D02*
X267413853Y-193714100D01*
X267413853Y-193714100D02*
X267485281Y-193642671D01*
X267485281Y-193642671D02*
X267485281Y-193785528D01*
X267485281Y-192856957D02*
X267556710Y-192928385D01*
X267556710Y-192928385D02*
X267485281Y-192999814D01*
X267485281Y-192999814D02*
X267413853Y-192928385D01*
X267413853Y-192928385D02*
X267485281Y-192856957D01*
X267485281Y-192856957D02*
X267485281Y-192999814D01*
D10*
D11*
X178386598Y-193721900D02*
X178600884Y-193793328D01*
X178600884Y-193793328D02*
X178958026Y-193793328D01*
X178958026Y-193793328D02*
X179100884Y-193721900D01*
X179100884Y-193721900D02*
X179172312Y-193650471D01*
X179172312Y-193650471D02*
X179243741Y-193507614D01*
X179243741Y-193507614D02*
X179243741Y-193364757D01*
X179243741Y-193364757D02*
X179172312Y-193221900D01*
X179172312Y-193221900D02*
X179100884Y-193150471D01*
X179100884Y-193150471D02*
X178958026Y-193079042D01*
X178958026Y-193079042D02*
X178672312Y-193007614D01*
X178672312Y-193007614D02*
X178529455Y-192936185D01*
X178529455Y-192936185D02*
X178458026Y-192864757D01*
X178458026Y-192864757D02*
X178386598Y-192721900D01*
X178386598Y-192721900D02*
X178386598Y-192579042D01*
X178386598Y-192579042D02*
X178458026Y-192436185D01*
X178458026Y-192436185D02*
X178529455Y-192364757D01*
X178529455Y-192364757D02*
X178672312Y-192293328D01*
X178672312Y-192293328D02*
X179029455Y-192293328D01*
X179029455Y-192293328D02*
X179243741Y-192364757D01*
X179886597Y-193793328D02*
X179886597Y-192793328D01*
X179886597Y-192293328D02*
X179815169Y-192364757D01*
X179815169Y-192364757D02*
X179886597Y-192436185D01*
X179886597Y-192436185D02*
X179958026Y-192364757D01*
X179958026Y-192364757D02*
X179886597Y-192293328D01*
X179886597Y-192293328D02*
X179886597Y-192436185D01*
X180458026Y-192793328D02*
X181243741Y-192793328D01*
X181243741Y-192793328D02*
X180458026Y-193793328D01*
X180458026Y-193793328D02*
X181243741Y-193793328D01*
X182386598Y-193721900D02*
X182243741Y-193793328D01*
X182243741Y-193793328D02*
X181958027Y-193793328D01*
X181958027Y-193793328D02*
X181815169Y-193721900D01*
X181815169Y-193721900D02*
X181743741Y-193579042D01*
X181743741Y-193579042D02*
X181743741Y-193007614D01*
X181743741Y-193007614D02*
X181815169Y-192864757D01*
X181815169Y-192864757D02*
X181958027Y-192793328D01*
X181958027Y-192793328D02*
X182243741Y-192793328D01*
X182243741Y-192793328D02*
X182386598Y-192864757D01*
X182386598Y-192864757D02*
X182458027Y-193007614D01*
X182458027Y-193007614D02*
X182458027Y-193150471D01*
X182458027Y-193150471D02*
X181743741Y-193293328D01*
X183100883Y-193650471D02*
X183172312Y-193721900D01*
X183172312Y-193721900D02*
X183100883Y-193793328D01*
X183100883Y-193793328D02*
X183029455Y-193721900D01*
X183029455Y-193721900D02*
X183100883Y-193650471D01*
X183100883Y-193650471D02*
X183100883Y-193793328D01*
X183100883Y-192864757D02*
X183172312Y-192936185D01*
X183172312Y-192936185D02*
X183100883Y-193007614D01*
X183100883Y-193007614D02*
X183029455Y-192936185D01*
X183029455Y-192936185D02*
X183100883Y-192864757D01*
X183100883Y-192864757D02*
X183100883Y-193007614D01*
X184886598Y-193364757D02*
X185600884Y-193364757D01*
X184743741Y-193793328D02*
X185243741Y-192293328D01*
X185243741Y-192293328D02*
X185743741Y-193793328D01*
X186886598Y-192793328D02*
X186886598Y-193793328D01*
X186529455Y-192221900D02*
X186172312Y-193293328D01*
X186172312Y-193293328D02*
X187100883Y-193293328D01*
D10*
D11*
X263458026Y-196593328D02*
X263458026Y-195093328D01*
X264815170Y-196593328D02*
X264815170Y-195093328D01*
X264815170Y-196521900D02*
X264672312Y-196593328D01*
X264672312Y-196593328D02*
X264386598Y-196593328D01*
X264386598Y-196593328D02*
X264243741Y-196521900D01*
X264243741Y-196521900D02*
X264172312Y-196450471D01*
X264172312Y-196450471D02*
X264100884Y-196307614D01*
X264100884Y-196307614D02*
X264100884Y-195879042D01*
X264100884Y-195879042D02*
X264172312Y-195736185D01*
X264172312Y-195736185D02*
X264243741Y-195664757D01*
X264243741Y-195664757D02*
X264386598Y-195593328D01*
X264386598Y-195593328D02*
X264672312Y-195593328D01*
X264672312Y-195593328D02*
X264815170Y-195664757D01*
X265529455Y-196450471D02*
X265600884Y-196521900D01*
X265600884Y-196521900D02*
X265529455Y-196593328D01*
X265529455Y-196593328D02*
X265458027Y-196521900D01*
X265458027Y-196521900D02*
X265529455Y-196450471D01*
X265529455Y-196450471D02*
X265529455Y-196593328D01*
X265529455Y-195664757D02*
X265600884Y-195736185D01*
X265600884Y-195736185D02*
X265529455Y-195807614D01*
X265529455Y-195807614D02*
X265458027Y-195736185D01*
X265458027Y-195736185D02*
X265529455Y-195664757D01*
X265529455Y-195664757D02*
X265529455Y-195807614D01*
X268100884Y-195093328D02*
X267386598Y-195093328D01*
X267386598Y-195093328D02*
X267315170Y-195807614D01*
X267315170Y-195807614D02*
X267386598Y-195736185D01*
X267386598Y-195736185D02*
X267529456Y-195664757D01*
X267529456Y-195664757D02*
X267886598Y-195664757D01*
X267886598Y-195664757D02*
X268029456Y-195736185D01*
X268029456Y-195736185D02*
X268100884Y-195807614D01*
X268100884Y-195807614D02*
X268172313Y-195950471D01*
X268172313Y-195950471D02*
X268172313Y-196307614D01*
X268172313Y-196307614D02*
X268100884Y-196450471D01*
X268100884Y-196450471D02*
X268029456Y-196521900D01*
X268029456Y-196521900D02*
X267886598Y-196593328D01*
X267886598Y-196593328D02*
X267529456Y-196593328D01*
X267529456Y-196593328D02*
X267386598Y-196521900D01*
X267386598Y-196521900D02*
X267315170Y-196450471D01*
X269886598Y-195021900D02*
X268600884Y-196950471D01*
X270458027Y-196593328D02*
X270743741Y-196593328D01*
X270743741Y-196593328D02*
X270886598Y-196521900D01*
X270886598Y-196521900D02*
X270958027Y-196450471D01*
X270958027Y-196450471D02*
X271100884Y-196236185D01*
X271100884Y-196236185D02*
X271172313Y-195950471D01*
X271172313Y-195950471D02*
X271172313Y-195379042D01*
X271172313Y-195379042D02*
X271100884Y-195236185D01*
X271100884Y-195236185D02*
X271029456Y-195164757D01*
X271029456Y-195164757D02*
X270886598Y-195093328D01*
X270886598Y-195093328D02*
X270600884Y-195093328D01*
X270600884Y-195093328D02*
X270458027Y-195164757D01*
X270458027Y-195164757D02*
X270386598Y-195236185D01*
X270386598Y-195236185D02*
X270315170Y-195379042D01*
X270315170Y-195379042D02*
X270315170Y-195736185D01*
X270315170Y-195736185D02*
X270386598Y-195879042D01*
X270386598Y-195879042D02*
X270458027Y-195950471D01*
X270458027Y-195950471D02*
X270600884Y-196021900D01*
X270600884Y-196021900D02*
X270886598Y-196021900D01*
X270886598Y-196021900D02*
X271029456Y-195950471D01*
X271029456Y-195950471D02*
X271100884Y-195879042D01*
X271100884Y-195879042D02*
X271172313Y-195736185D01*
D10*
D11*
X177002200Y-187507200D02*
X285002200Y-187507200D01*
D10*
D13*
X178693928Y-188211638D02*
X179836785Y-188211638D01*
X179015357Y-190211638D02*
X179265357Y-188211638D01*
X180253452Y-190211638D02*
X180420119Y-188878304D01*
X180503452Y-188211638D02*
X180396309Y-188306876D01*
X180396309Y-188306876D02*
X180479643Y-188402114D01*
X180479643Y-188402114D02*
X180586786Y-188306876D01*
X180586786Y-188306876D02*
X180503452Y-188211638D01*
X180503452Y-188211638D02*
X180479643Y-188402114D01*
X181086786Y-188878304D02*
X181848690Y-188878304D01*
X181455833Y-188211638D02*
X181241548Y-189925923D01*
X181241548Y-189925923D02*
X181312976Y-190116400D01*
X181312976Y-190116400D02*
X181491548Y-190211638D01*
X181491548Y-190211638D02*
X181682024Y-190211638D01*
X182634405Y-190211638D02*
X182455833Y-190116400D01*
X182455833Y-190116400D02*
X182384405Y-189925923D01*
X182384405Y-189925923D02*
X182598690Y-188211638D01*
X184170119Y-190116400D02*
X183967738Y-190211638D01*
X183967738Y-190211638D02*
X183586785Y-190211638D01*
X183586785Y-190211638D02*
X183408214Y-190116400D01*
X183408214Y-190116400D02*
X183336785Y-189925923D01*
X183336785Y-189925923D02*
X183432024Y-189164019D01*
X183432024Y-189164019D02*
X183551071Y-188973542D01*
X183551071Y-188973542D02*
X183753452Y-188878304D01*
X183753452Y-188878304D02*
X184134404Y-188878304D01*
X184134404Y-188878304D02*
X184312976Y-188973542D01*
X184312976Y-188973542D02*
X184384404Y-189164019D01*
X184384404Y-189164019D02*
X184360595Y-189354495D01*
X184360595Y-189354495D02*
X183384404Y-189544971D01*
X185134405Y-190021161D02*
X185217738Y-190116400D01*
X185217738Y-190116400D02*
X185110595Y-190211638D01*
X185110595Y-190211638D02*
X185027262Y-190116400D01*
X185027262Y-190116400D02*
X185134405Y-190021161D01*
X185134405Y-190021161D02*
X185110595Y-190211638D01*
X185265357Y-188973542D02*
X185348690Y-189068780D01*
X185348690Y-189068780D02*
X185241548Y-189164019D01*
X185241548Y-189164019D02*
X185158214Y-189068780D01*
X185158214Y-189068780D02*
X185265357Y-188973542D01*
X185265357Y-188973542D02*
X185241548Y-189164019D01*
X187586786Y-190211638D02*
X187753453Y-188878304D01*
X187729643Y-189068780D02*
X187836786Y-188973542D01*
X187836786Y-188973542D02*
X188039167Y-188878304D01*
X188039167Y-188878304D02*
X188324881Y-188878304D01*
X188324881Y-188878304D02*
X188503453Y-188973542D01*
X188503453Y-188973542D02*
X188574881Y-189164019D01*
X188574881Y-189164019D02*
X188443929Y-190211638D01*
X188574881Y-189164019D02*
X188693929Y-188973542D01*
X188693929Y-188973542D02*
X188896310Y-188878304D01*
X188896310Y-188878304D02*
X189182024Y-188878304D01*
X189182024Y-188878304D02*
X189360596Y-188973542D01*
X189360596Y-188973542D02*
X189432024Y-189164019D01*
X189432024Y-189164019D02*
X189301072Y-190211638D01*
X190539168Y-190211638D02*
X190360596Y-190116400D01*
X190360596Y-190116400D02*
X190277263Y-190021161D01*
X190277263Y-190021161D02*
X190205834Y-189830685D01*
X190205834Y-189830685D02*
X190277263Y-189259257D01*
X190277263Y-189259257D02*
X190396310Y-189068780D01*
X190396310Y-189068780D02*
X190503453Y-188973542D01*
X190503453Y-188973542D02*
X190705834Y-188878304D01*
X190705834Y-188878304D02*
X190991548Y-188878304D01*
X190991548Y-188878304D02*
X191170120Y-188973542D01*
X191170120Y-188973542D02*
X191253453Y-189068780D01*
X191253453Y-189068780D02*
X191324882Y-189259257D01*
X191324882Y-189259257D02*
X191253453Y-189830685D01*
X191253453Y-189830685D02*
X191134406Y-190021161D01*
X191134406Y-190021161D02*
X191027263Y-190116400D01*
X191027263Y-190116400D02*
X190824882Y-190211638D01*
X190824882Y-190211638D02*
X190539168Y-190211638D01*
X191943930Y-188878304D02*
X192705834Y-188878304D01*
X192312977Y-188211638D02*
X192098692Y-189925923D01*
X192098692Y-189925923D02*
X192170120Y-190116400D01*
X192170120Y-190116400D02*
X192348692Y-190211638D01*
X192348692Y-190211638D02*
X192539168Y-190211638D01*
X193491549Y-190211638D02*
X193312977Y-190116400D01*
X193312977Y-190116400D02*
X193229644Y-190021161D01*
X193229644Y-190021161D02*
X193158215Y-189830685D01*
X193158215Y-189830685D02*
X193229644Y-189259257D01*
X193229644Y-189259257D02*
X193348691Y-189068780D01*
X193348691Y-189068780D02*
X193455834Y-188973542D01*
X193455834Y-188973542D02*
X193658215Y-188878304D01*
X193658215Y-188878304D02*
X193943929Y-188878304D01*
X193943929Y-188878304D02*
X194122501Y-188973542D01*
X194122501Y-188973542D02*
X194205834Y-189068780D01*
X194205834Y-189068780D02*
X194277263Y-189259257D01*
X194277263Y-189259257D02*
X194205834Y-189830685D01*
X194205834Y-189830685D02*
X194086787Y-190021161D01*
X194086787Y-190021161D02*
X193979644Y-190116400D01*
X193979644Y-190116400D02*
X193777263Y-190211638D01*
X193777263Y-190211638D02*
X193491549Y-190211638D01*
X195015358Y-190211638D02*
X195182025Y-188878304D01*
X195134406Y-189259257D02*
X195253453Y-189068780D01*
X195253453Y-189068780D02*
X195360596Y-188973542D01*
X195360596Y-188973542D02*
X195562977Y-188878304D01*
X195562977Y-188878304D02*
X195753453Y-188878304D01*
X198634406Y-190211638D02*
X198884406Y-188211638D01*
X198646311Y-190116400D02*
X198443930Y-190211638D01*
X198443930Y-190211638D02*
X198062978Y-190211638D01*
X198062978Y-190211638D02*
X197884406Y-190116400D01*
X197884406Y-190116400D02*
X197801073Y-190021161D01*
X197801073Y-190021161D02*
X197729644Y-189830685D01*
X197729644Y-189830685D02*
X197801073Y-189259257D01*
X197801073Y-189259257D02*
X197920120Y-189068780D01*
X197920120Y-189068780D02*
X198027263Y-188973542D01*
X198027263Y-188973542D02*
X198229644Y-188878304D01*
X198229644Y-188878304D02*
X198610597Y-188878304D01*
X198610597Y-188878304D02*
X198789168Y-188973542D01*
X199586787Y-190211638D02*
X199753454Y-188878304D01*
X199705835Y-189259257D02*
X199824882Y-189068780D01*
X199824882Y-189068780D02*
X199932025Y-188973542D01*
X199932025Y-188973542D02*
X200134406Y-188878304D01*
X200134406Y-188878304D02*
X200324882Y-188878304D01*
X200824882Y-190211638D02*
X200991549Y-188878304D01*
X201074882Y-188211638D02*
X200967739Y-188306876D01*
X200967739Y-188306876D02*
X201051073Y-188402114D01*
X201051073Y-188402114D02*
X201158216Y-188306876D01*
X201158216Y-188306876D02*
X201074882Y-188211638D01*
X201074882Y-188211638D02*
X201051073Y-188402114D01*
X201753454Y-188878304D02*
X202062978Y-190211638D01*
X202062978Y-190211638D02*
X202705835Y-188878304D01*
X204074883Y-190116400D02*
X203872502Y-190211638D01*
X203872502Y-190211638D02*
X203491549Y-190211638D01*
X203491549Y-190211638D02*
X203312978Y-190116400D01*
X203312978Y-190116400D02*
X203241549Y-189925923D01*
X203241549Y-189925923D02*
X203336788Y-189164019D01*
X203336788Y-189164019D02*
X203455835Y-188973542D01*
X203455835Y-188973542D02*
X203658216Y-188878304D01*
X203658216Y-188878304D02*
X204039168Y-188878304D01*
X204039168Y-188878304D02*
X204217740Y-188973542D01*
X204217740Y-188973542D02*
X204289168Y-189164019D01*
X204289168Y-189164019D02*
X204265359Y-189354495D01*
X204265359Y-189354495D02*
X203289168Y-189544971D01*
X205015359Y-190211638D02*
X205182026Y-188878304D01*
X205134407Y-189259257D02*
X205253454Y-189068780D01*
X205253454Y-189068780D02*
X205360597Y-188973542D01*
X205360597Y-188973542D02*
X205562978Y-188878304D01*
X205562978Y-188878304D02*
X205753454Y-188878304D01*
X207872502Y-189449733D02*
X209396312Y-189449733D01*
X211777264Y-190211638D02*
X212027264Y-188211638D01*
X211932026Y-188973542D02*
X212134407Y-188878304D01*
X212134407Y-188878304D02*
X212515359Y-188878304D01*
X212515359Y-188878304D02*
X212693931Y-188973542D01*
X212693931Y-188973542D02*
X212777264Y-189068780D01*
X212777264Y-189068780D02*
X212848693Y-189259257D01*
X212848693Y-189259257D02*
X212777264Y-189830685D01*
X212777264Y-189830685D02*
X212658217Y-190021161D01*
X212658217Y-190021161D02*
X212551074Y-190116400D01*
X212551074Y-190116400D02*
X212348693Y-190211638D01*
X212348693Y-190211638D02*
X211967740Y-190211638D01*
X211967740Y-190211638D02*
X211789169Y-190116400D01*
X213562979Y-188878304D02*
X213872503Y-190211638D01*
X214515360Y-188878304D02*
X213872503Y-190211638D01*
X213872503Y-190211638D02*
X213622503Y-190687828D01*
X213622503Y-190687828D02*
X213515360Y-190783066D01*
X213515360Y-190783066D02*
X213312979Y-190878304D01*
X216634408Y-190211638D02*
X216801075Y-188878304D01*
X216753456Y-189259257D02*
X216872503Y-189068780D01*
X216872503Y-189068780D02*
X216979646Y-188973542D01*
X216979646Y-188973542D02*
X217182027Y-188878304D01*
X217182027Y-188878304D02*
X217372503Y-188878304D01*
X218729646Y-190211638D02*
X218860598Y-189164019D01*
X218860598Y-189164019D02*
X218789170Y-188973542D01*
X218789170Y-188973542D02*
X218610598Y-188878304D01*
X218610598Y-188878304D02*
X218229646Y-188878304D01*
X218229646Y-188878304D02*
X218027265Y-188973542D01*
X218741551Y-190116400D02*
X218539170Y-190211638D01*
X218539170Y-190211638D02*
X218062979Y-190211638D01*
X218062979Y-190211638D02*
X217884408Y-190116400D01*
X217884408Y-190116400D02*
X217812979Y-189925923D01*
X217812979Y-189925923D02*
X217836789Y-189735447D01*
X217836789Y-189735447D02*
X217955837Y-189544971D01*
X217955837Y-189544971D02*
X218158218Y-189449733D01*
X218158218Y-189449733D02*
X218634408Y-189449733D01*
X218634408Y-189449733D02*
X218836789Y-189354495D01*
X219658218Y-188878304D02*
X219967742Y-190211638D01*
X219967742Y-190211638D02*
X220610599Y-188878304D01*
X222062980Y-190211638D02*
X222193932Y-189164019D01*
X222193932Y-189164019D02*
X222122504Y-188973542D01*
X222122504Y-188973542D02*
X221943932Y-188878304D01*
X221943932Y-188878304D02*
X221562980Y-188878304D01*
X221562980Y-188878304D02*
X221360599Y-188973542D01*
X222074885Y-190116400D02*
X221872504Y-190211638D01*
X221872504Y-190211638D02*
X221396313Y-190211638D01*
X221396313Y-190211638D02*
X221217742Y-190116400D01*
X221217742Y-190116400D02*
X221146313Y-189925923D01*
X221146313Y-189925923D02*
X221170123Y-189735447D01*
X221170123Y-189735447D02*
X221289171Y-189544971D01*
X221289171Y-189544971D02*
X221491552Y-189449733D01*
X221491552Y-189449733D02*
X221967742Y-189449733D01*
X221967742Y-189449733D02*
X222170123Y-189354495D01*
X223182028Y-188878304D02*
X223015361Y-190211638D01*
X223158218Y-189068780D02*
X223265361Y-188973542D01*
X223265361Y-188973542D02*
X223467742Y-188878304D01*
X223467742Y-188878304D02*
X223753456Y-188878304D01*
X223753456Y-188878304D02*
X223932028Y-188973542D01*
X223932028Y-188973542D02*
X224003456Y-189164019D01*
X224003456Y-189164019D02*
X223872504Y-190211638D01*
D10*
D11*
X178958026Y-185607614D02*
X178458026Y-185607614D01*
X178458026Y-186393328D02*
X178458026Y-184893328D01*
X178458026Y-184893328D02*
X179172312Y-184893328D01*
X179743740Y-186393328D02*
X179743740Y-185393328D01*
X179743740Y-184893328D02*
X179672312Y-184964757D01*
X179672312Y-184964757D02*
X179743740Y-185036185D01*
X179743740Y-185036185D02*
X179815169Y-184964757D01*
X179815169Y-184964757D02*
X179743740Y-184893328D01*
X179743740Y-184893328D02*
X179743740Y-185036185D01*
X180672312Y-186393328D02*
X180529455Y-186321900D01*
X180529455Y-186321900D02*
X180458026Y-186179042D01*
X180458026Y-186179042D02*
X180458026Y-184893328D01*
X181815169Y-186321900D02*
X181672312Y-186393328D01*
X181672312Y-186393328D02*
X181386598Y-186393328D01*
X181386598Y-186393328D02*
X181243740Y-186321900D01*
X181243740Y-186321900D02*
X181172312Y-186179042D01*
X181172312Y-186179042D02*
X181172312Y-185607614D01*
X181172312Y-185607614D02*
X181243740Y-185464757D01*
X181243740Y-185464757D02*
X181386598Y-185393328D01*
X181386598Y-185393328D02*
X181672312Y-185393328D01*
X181672312Y-185393328D02*
X181815169Y-185464757D01*
X181815169Y-185464757D02*
X181886598Y-185607614D01*
X181886598Y-185607614D02*
X181886598Y-185750471D01*
X181886598Y-185750471D02*
X181172312Y-185893328D01*
X182529454Y-186250471D02*
X182600883Y-186321900D01*
X182600883Y-186321900D02*
X182529454Y-186393328D01*
X182529454Y-186393328D02*
X182458026Y-186321900D01*
X182458026Y-186321900D02*
X182529454Y-186250471D01*
X182529454Y-186250471D02*
X182529454Y-186393328D01*
X182529454Y-185464757D02*
X182600883Y-185536185D01*
X182600883Y-185536185D02*
X182529454Y-185607614D01*
X182529454Y-185607614D02*
X182458026Y-185536185D01*
X182458026Y-185536185D02*
X182529454Y-185464757D01*
X182529454Y-185464757D02*
X182529454Y-185607614D01*
X184386597Y-186393328D02*
X184386597Y-185393328D01*
X184386597Y-185679042D02*
X184458026Y-185536185D01*
X184458026Y-185536185D02*
X184529455Y-185464757D01*
X184529455Y-185464757D02*
X184672312Y-185393328D01*
X184672312Y-185393328D02*
X184815169Y-185393328D01*
X185958026Y-186393328D02*
X185958026Y-185607614D01*
X185958026Y-185607614D02*
X185886597Y-185464757D01*
X185886597Y-185464757D02*
X185743740Y-185393328D01*
X185743740Y-185393328D02*
X185458026Y-185393328D01*
X185458026Y-185393328D02*
X185315168Y-185464757D01*
X185958026Y-186321900D02*
X185815168Y-186393328D01*
X185815168Y-186393328D02*
X185458026Y-186393328D01*
X185458026Y-186393328D02*
X185315168Y-186321900D01*
X185315168Y-186321900D02*
X185243740Y-186179042D01*
X185243740Y-186179042D02*
X185243740Y-186036185D01*
X185243740Y-186036185D02*
X185315168Y-185893328D01*
X185315168Y-185893328D02*
X185458026Y-185821900D01*
X185458026Y-185821900D02*
X185815168Y-185821900D01*
X185815168Y-185821900D02*
X185958026Y-185750471D01*
X186529454Y-185393328D02*
X186886597Y-186393328D01*
X186886597Y-186393328D02*
X187243740Y-185393328D01*
X188458026Y-186393328D02*
X188458026Y-185607614D01*
X188458026Y-185607614D02*
X188386597Y-185464757D01*
X188386597Y-185464757D02*
X188243740Y-185393328D01*
X188243740Y-185393328D02*
X187958026Y-185393328D01*
X187958026Y-185393328D02*
X187815168Y-185464757D01*
X188458026Y-186321900D02*
X188315168Y-186393328D01*
X188315168Y-186393328D02*
X187958026Y-186393328D01*
X187958026Y-186393328D02*
X187815168Y-186321900D01*
X187815168Y-186321900D02*
X187743740Y-186179042D01*
X187743740Y-186179042D02*
X187743740Y-186036185D01*
X187743740Y-186036185D02*
X187815168Y-185893328D01*
X187815168Y-185893328D02*
X187958026Y-185821900D01*
X187958026Y-185821900D02*
X188315168Y-185821900D01*
X188315168Y-185821900D02*
X188458026Y-185750471D01*
X189172311Y-185393328D02*
X189172311Y-186393328D01*
X189172311Y-185536185D02*
X189243740Y-185464757D01*
X189243740Y-185464757D02*
X189386597Y-185393328D01*
X189386597Y-185393328D02*
X189600883Y-185393328D01*
X189600883Y-185393328D02*
X189743740Y-185464757D01*
X189743740Y-185464757D02*
X189815169Y-185607614D01*
X189815169Y-185607614D02*
X189815169Y-186393328D01*
X190529454Y-185821900D02*
X191672312Y-185821900D01*
X192386597Y-186393328D02*
X192386597Y-185393328D01*
X192386597Y-185536185D02*
X192458026Y-185464757D01*
X192458026Y-185464757D02*
X192600883Y-185393328D01*
X192600883Y-185393328D02*
X192815169Y-185393328D01*
X192815169Y-185393328D02*
X192958026Y-185464757D01*
X192958026Y-185464757D02*
X193029455Y-185607614D01*
X193029455Y-185607614D02*
X193029455Y-186393328D01*
X193029455Y-185607614D02*
X193100883Y-185464757D01*
X193100883Y-185464757D02*
X193243740Y-185393328D01*
X193243740Y-185393328D02*
X193458026Y-185393328D01*
X193458026Y-185393328D02*
X193600883Y-185464757D01*
X193600883Y-185464757D02*
X193672312Y-185607614D01*
X193672312Y-185607614D02*
X193672312Y-186393328D01*
X194600883Y-186393328D02*
X194458026Y-186321900D01*
X194458026Y-186321900D02*
X194386597Y-186250471D01*
X194386597Y-186250471D02*
X194315169Y-186107614D01*
X194315169Y-186107614D02*
X194315169Y-185679042D01*
X194315169Y-185679042D02*
X194386597Y-185536185D01*
X194386597Y-185536185D02*
X194458026Y-185464757D01*
X194458026Y-185464757D02*
X194600883Y-185393328D01*
X194600883Y-185393328D02*
X194815169Y-185393328D01*
X194815169Y-185393328D02*
X194958026Y-185464757D01*
X194958026Y-185464757D02*
X195029455Y-185536185D01*
X195029455Y-185536185D02*
X195100883Y-185679042D01*
X195100883Y-185679042D02*
X195100883Y-186107614D01*
X195100883Y-186107614D02*
X195029455Y-186250471D01*
X195029455Y-186250471D02*
X194958026Y-186321900D01*
X194958026Y-186321900D02*
X194815169Y-186393328D01*
X194815169Y-186393328D02*
X194600883Y-186393328D01*
X195529455Y-185393328D02*
X196100883Y-185393328D01*
X195743740Y-184893328D02*
X195743740Y-186179042D01*
X195743740Y-186179042D02*
X195815169Y-186321900D01*
X195815169Y-186321900D02*
X195958026Y-186393328D01*
X195958026Y-186393328D02*
X196100883Y-186393328D01*
X196815169Y-186393328D02*
X196672312Y-186321900D01*
X196672312Y-186321900D02*
X196600883Y-186250471D01*
X196600883Y-186250471D02*
X196529455Y-186107614D01*
X196529455Y-186107614D02*
X196529455Y-185679042D01*
X196529455Y-185679042D02*
X196600883Y-185536185D01*
X196600883Y-185536185D02*
X196672312Y-185464757D01*
X196672312Y-185464757D02*
X196815169Y-185393328D01*
X196815169Y-185393328D02*
X197029455Y-185393328D01*
X197029455Y-185393328D02*
X197172312Y-185464757D01*
X197172312Y-185464757D02*
X197243741Y-185536185D01*
X197243741Y-185536185D02*
X197315169Y-185679042D01*
X197315169Y-185679042D02*
X197315169Y-186107614D01*
X197315169Y-186107614D02*
X197243741Y-186250471D01*
X197243741Y-186250471D02*
X197172312Y-186321900D01*
X197172312Y-186321900D02*
X197029455Y-186393328D01*
X197029455Y-186393328D02*
X196815169Y-186393328D01*
X197958026Y-186393328D02*
X197958026Y-185393328D01*
X197958026Y-185679042D02*
X198029455Y-185536185D01*
X198029455Y-185536185D02*
X198100884Y-185464757D01*
X198100884Y-185464757D02*
X198243741Y-185393328D01*
X198243741Y-185393328D02*
X198386598Y-185393328D01*
X198886597Y-185821900D02*
X200029455Y-185821900D01*
X201386598Y-186393328D02*
X201386598Y-184893328D01*
X201386598Y-186321900D02*
X201243740Y-186393328D01*
X201243740Y-186393328D02*
X200958026Y-186393328D01*
X200958026Y-186393328D02*
X200815169Y-186321900D01*
X200815169Y-186321900D02*
X200743740Y-186250471D01*
X200743740Y-186250471D02*
X200672312Y-186107614D01*
X200672312Y-186107614D02*
X200672312Y-185679042D01*
X200672312Y-185679042D02*
X200743740Y-185536185D01*
X200743740Y-185536185D02*
X200815169Y-185464757D01*
X200815169Y-185464757D02*
X200958026Y-185393328D01*
X200958026Y-185393328D02*
X201243740Y-185393328D01*
X201243740Y-185393328D02*
X201386598Y-185464757D01*
X202100883Y-186393328D02*
X202100883Y-185393328D01*
X202100883Y-185679042D02*
X202172312Y-185536185D01*
X202172312Y-185536185D02*
X202243741Y-185464757D01*
X202243741Y-185464757D02*
X202386598Y-185393328D01*
X202386598Y-185393328D02*
X202529455Y-185393328D01*
X203029454Y-186393328D02*
X203029454Y-185393328D01*
X203029454Y-184893328D02*
X202958026Y-184964757D01*
X202958026Y-184964757D02*
X203029454Y-185036185D01*
X203029454Y-185036185D02*
X203100883Y-184964757D01*
X203100883Y-184964757D02*
X203029454Y-184893328D01*
X203029454Y-184893328D02*
X203029454Y-185036185D01*
X203600883Y-185393328D02*
X203958026Y-186393328D01*
X203958026Y-186393328D02*
X204315169Y-185393328D01*
X205458026Y-186321900D02*
X205315169Y-186393328D01*
X205315169Y-186393328D02*
X205029455Y-186393328D01*
X205029455Y-186393328D02*
X204886597Y-186321900D01*
X204886597Y-186321900D02*
X204815169Y-186179042D01*
X204815169Y-186179042D02*
X204815169Y-185607614D01*
X204815169Y-185607614D02*
X204886597Y-185464757D01*
X204886597Y-185464757D02*
X205029455Y-185393328D01*
X205029455Y-185393328D02*
X205315169Y-185393328D01*
X205315169Y-185393328D02*
X205458026Y-185464757D01*
X205458026Y-185464757D02*
X205529455Y-185607614D01*
X205529455Y-185607614D02*
X205529455Y-185750471D01*
X205529455Y-185750471D02*
X204815169Y-185893328D01*
X206172311Y-186393328D02*
X206172311Y-185393328D01*
X206172311Y-185679042D02*
X206243740Y-185536185D01*
X206243740Y-185536185D02*
X206315169Y-185464757D01*
X206315169Y-185464757D02*
X206458026Y-185393328D01*
X206458026Y-185393328D02*
X206600883Y-185393328D01*
X207100882Y-186250471D02*
X207172311Y-186321900D01*
X207172311Y-186321900D02*
X207100882Y-186393328D01*
X207100882Y-186393328D02*
X207029454Y-186321900D01*
X207029454Y-186321900D02*
X207100882Y-186250471D01*
X207100882Y-186250471D02*
X207100882Y-186393328D01*
X207815168Y-186393328D02*
X207815168Y-184893328D01*
X207958026Y-185821900D02*
X208386597Y-186393328D01*
X208386597Y-185393328D02*
X207815168Y-185964757D01*
X209029454Y-186393328D02*
X209029454Y-185393328D01*
X209029454Y-184893328D02*
X208958026Y-184964757D01*
X208958026Y-184964757D02*
X209029454Y-185036185D01*
X209029454Y-185036185D02*
X209100883Y-184964757D01*
X209100883Y-184964757D02*
X209029454Y-184893328D01*
X209029454Y-184893328D02*
X209029454Y-185036185D01*
X210386598Y-186321900D02*
X210243740Y-186393328D01*
X210243740Y-186393328D02*
X209958026Y-186393328D01*
X209958026Y-186393328D02*
X209815169Y-186321900D01*
X209815169Y-186321900D02*
X209743740Y-186250471D01*
X209743740Y-186250471D02*
X209672312Y-186107614D01*
X209672312Y-186107614D02*
X209672312Y-185679042D01*
X209672312Y-185679042D02*
X209743740Y-185536185D01*
X209743740Y-185536185D02*
X209815169Y-185464757D01*
X209815169Y-185464757D02*
X209958026Y-185393328D01*
X209958026Y-185393328D02*
X210243740Y-185393328D01*
X210243740Y-185393328D02*
X210386598Y-185464757D01*
X211672312Y-186393328D02*
X211672312Y-185607614D01*
X211672312Y-185607614D02*
X211600883Y-185464757D01*
X211600883Y-185464757D02*
X211458026Y-185393328D01*
X211458026Y-185393328D02*
X211172312Y-185393328D01*
X211172312Y-185393328D02*
X211029454Y-185464757D01*
X211672312Y-186321900D02*
X211529454Y-186393328D01*
X211529454Y-186393328D02*
X211172312Y-186393328D01*
X211172312Y-186393328D02*
X211029454Y-186321900D01*
X211029454Y-186321900D02*
X210958026Y-186179042D01*
X210958026Y-186179042D02*
X210958026Y-186036185D01*
X210958026Y-186036185D02*
X211029454Y-185893328D01*
X211029454Y-185893328D02*
X211172312Y-185821900D01*
X211172312Y-185821900D02*
X211529454Y-185821900D01*
X211529454Y-185821900D02*
X211672312Y-185750471D01*
X213029455Y-186393328D02*
X213029455Y-184893328D01*
X213029455Y-186321900D02*
X212886597Y-186393328D01*
X212886597Y-186393328D02*
X212600883Y-186393328D01*
X212600883Y-186393328D02*
X212458026Y-186321900D01*
X212458026Y-186321900D02*
X212386597Y-186250471D01*
X212386597Y-186250471D02*
X212315169Y-186107614D01*
X212315169Y-186107614D02*
X212315169Y-185679042D01*
X212315169Y-185679042D02*
X212386597Y-185536185D01*
X212386597Y-185536185D02*
X212458026Y-185464757D01*
X212458026Y-185464757D02*
X212600883Y-185393328D01*
X212600883Y-185393328D02*
X212886597Y-185393328D01*
X212886597Y-185393328D02*
X213029455Y-185464757D01*
X213386598Y-186536185D02*
X214529455Y-186536185D01*
X214886597Y-185393328D02*
X214886597Y-186893328D01*
X214886597Y-185464757D02*
X215029455Y-185393328D01*
X215029455Y-185393328D02*
X215315169Y-185393328D01*
X215315169Y-185393328D02*
X215458026Y-185464757D01*
X215458026Y-185464757D02*
X215529455Y-185536185D01*
X215529455Y-185536185D02*
X215600883Y-185679042D01*
X215600883Y-185679042D02*
X215600883Y-186107614D01*
X215600883Y-186107614D02*
X215529455Y-186250471D01*
X215529455Y-186250471D02*
X215458026Y-186321900D01*
X215458026Y-186321900D02*
X215315169Y-186393328D01*
X215315169Y-186393328D02*
X215029455Y-186393328D01*
X215029455Y-186393328D02*
X214886597Y-186321900D01*
X216886598Y-186321900D02*
X216743740Y-186393328D01*
X216743740Y-186393328D02*
X216458026Y-186393328D01*
X216458026Y-186393328D02*
X216315169Y-186321900D01*
X216315169Y-186321900D02*
X216243740Y-186250471D01*
X216243740Y-186250471D02*
X216172312Y-186107614D01*
X216172312Y-186107614D02*
X216172312Y-185679042D01*
X216172312Y-185679042D02*
X216243740Y-185536185D01*
X216243740Y-185536185D02*
X216315169Y-185464757D01*
X216315169Y-185464757D02*
X216458026Y-185393328D01*
X216458026Y-185393328D02*
X216743740Y-185393328D01*
X216743740Y-185393328D02*
X216886598Y-185464757D01*
X217529454Y-186393328D02*
X217529454Y-184893328D01*
X217529454Y-185464757D02*
X217672312Y-185393328D01*
X217672312Y-185393328D02*
X217958026Y-185393328D01*
X217958026Y-185393328D02*
X218100883Y-185464757D01*
X218100883Y-185464757D02*
X218172312Y-185536185D01*
X218172312Y-185536185D02*
X218243740Y-185679042D01*
X218243740Y-185679042D02*
X218243740Y-186107614D01*
X218243740Y-186107614D02*
X218172312Y-186250471D01*
X218172312Y-186250471D02*
X218100883Y-186321900D01*
X218100883Y-186321900D02*
X217958026Y-186393328D01*
X217958026Y-186393328D02*
X217672312Y-186393328D01*
X217672312Y-186393328D02*
X217529454Y-186321900D01*
D10*
D11*
X177002200Y-181507200D02*
X285002200Y-181507200D01*
D10*
D11*
X178386598Y-183621900D02*
X178600884Y-183693328D01*
X178600884Y-183693328D02*
X178958026Y-183693328D01*
X178958026Y-183693328D02*
X179100884Y-183621900D01*
X179100884Y-183621900D02*
X179172312Y-183550471D01*
X179172312Y-183550471D02*
X179243741Y-183407614D01*
X179243741Y-183407614D02*
X179243741Y-183264757D01*
X179243741Y-183264757D02*
X179172312Y-183121900D01*
X179172312Y-183121900D02*
X179100884Y-183050471D01*
X179100884Y-183050471D02*
X178958026Y-182979042D01*
X178958026Y-182979042D02*
X178672312Y-182907614D01*
X178672312Y-182907614D02*
X178529455Y-182836185D01*
X178529455Y-182836185D02*
X178458026Y-182764757D01*
X178458026Y-182764757D02*
X178386598Y-182621900D01*
X178386598Y-182621900D02*
X178386598Y-182479042D01*
X178386598Y-182479042D02*
X178458026Y-182336185D01*
X178458026Y-182336185D02*
X178529455Y-182264757D01*
X178529455Y-182264757D02*
X178672312Y-182193328D01*
X178672312Y-182193328D02*
X179029455Y-182193328D01*
X179029455Y-182193328D02*
X179243741Y-182264757D01*
X179886597Y-183693328D02*
X179886597Y-182193328D01*
X180529455Y-183693328D02*
X180529455Y-182907614D01*
X180529455Y-182907614D02*
X180458026Y-182764757D01*
X180458026Y-182764757D02*
X180315169Y-182693328D01*
X180315169Y-182693328D02*
X180100883Y-182693328D01*
X180100883Y-182693328D02*
X179958026Y-182764757D01*
X179958026Y-182764757D02*
X179886597Y-182836185D01*
X181815169Y-183621900D02*
X181672312Y-183693328D01*
X181672312Y-183693328D02*
X181386598Y-183693328D01*
X181386598Y-183693328D02*
X181243740Y-183621900D01*
X181243740Y-183621900D02*
X181172312Y-183479042D01*
X181172312Y-183479042D02*
X181172312Y-182907614D01*
X181172312Y-182907614D02*
X181243740Y-182764757D01*
X181243740Y-182764757D02*
X181386598Y-182693328D01*
X181386598Y-182693328D02*
X181672312Y-182693328D01*
X181672312Y-182693328D02*
X181815169Y-182764757D01*
X181815169Y-182764757D02*
X181886598Y-182907614D01*
X181886598Y-182907614D02*
X181886598Y-183050471D01*
X181886598Y-183050471D02*
X181172312Y-183193328D01*
X183100883Y-183621900D02*
X182958026Y-183693328D01*
X182958026Y-183693328D02*
X182672312Y-183693328D01*
X182672312Y-183693328D02*
X182529454Y-183621900D01*
X182529454Y-183621900D02*
X182458026Y-183479042D01*
X182458026Y-183479042D02*
X182458026Y-182907614D01*
X182458026Y-182907614D02*
X182529454Y-182764757D01*
X182529454Y-182764757D02*
X182672312Y-182693328D01*
X182672312Y-182693328D02*
X182958026Y-182693328D01*
X182958026Y-182693328D02*
X183100883Y-182764757D01*
X183100883Y-182764757D02*
X183172312Y-182907614D01*
X183172312Y-182907614D02*
X183172312Y-183050471D01*
X183172312Y-183050471D02*
X182458026Y-183193328D01*
X183600883Y-182693328D02*
X184172311Y-182693328D01*
X183815168Y-182193328D02*
X183815168Y-183479042D01*
X183815168Y-183479042D02*
X183886597Y-183621900D01*
X183886597Y-183621900D02*
X184029454Y-183693328D01*
X184029454Y-183693328D02*
X184172311Y-183693328D01*
X184672311Y-183550471D02*
X184743740Y-183621900D01*
X184743740Y-183621900D02*
X184672311Y-183693328D01*
X184672311Y-183693328D02*
X184600883Y-183621900D01*
X184600883Y-183621900D02*
X184672311Y-183550471D01*
X184672311Y-183550471D02*
X184672311Y-183693328D01*
X184672311Y-182764757D02*
X184743740Y-182836185D01*
X184743740Y-182836185D02*
X184672311Y-182907614D01*
X184672311Y-182907614D02*
X184600883Y-182836185D01*
X184600883Y-182836185D02*
X184672311Y-182764757D01*
X184672311Y-182764757D02*
X184672311Y-182907614D01*
D10*
D11*
X197002200Y-191507200D02*
X197002200Y-194507200D01*
D10*
D11*
X261002200Y-191507200D02*
X261002200Y-198007200D01*
D10*
X101990184Y-64289919D02*
X101990184Y-63289919D01*
X101990184Y-63289919D02*
X102371136Y-63289919D01*
X102371136Y-63289919D02*
X102466374Y-63337538D01*
X102466374Y-63337538D02*
X102513993Y-63385157D01*
X102513993Y-63385157D02*
X102561612Y-63480395D01*
X102561612Y-63480395D02*
X102561612Y-63623252D01*
X102561612Y-63623252D02*
X102513993Y-63718490D01*
X102513993Y-63718490D02*
X102466374Y-63766109D01*
X102466374Y-63766109D02*
X102371136Y-63813728D01*
X102371136Y-63813728D02*
X101990184Y-63813728D01*
X102894946Y-63289919D02*
X103133041Y-64289919D01*
X103133041Y-64289919D02*
X103323517Y-63575633D01*
X103323517Y-63575633D02*
X103513993Y-64289919D01*
X103513993Y-64289919D02*
X103752089Y-63289919D01*
X104704469Y-64289919D02*
X104371136Y-63813728D01*
X104133041Y-64289919D02*
X104133041Y-63289919D01*
X104133041Y-63289919D02*
X104513993Y-63289919D01*
X104513993Y-63289919D02*
X104609231Y-63337538D01*
X104609231Y-63337538D02*
X104656850Y-63385157D01*
X104656850Y-63385157D02*
X104704469Y-63480395D01*
X104704469Y-63480395D02*
X104704469Y-63623252D01*
X104704469Y-63623252D02*
X104656850Y-63718490D01*
X104656850Y-63718490D02*
X104609231Y-63766109D01*
X104609231Y-63766109D02*
X104513993Y-63813728D01*
X104513993Y-63813728D02*
X104133041Y-63813728D01*
X106609231Y-63242300D02*
X105752089Y-64528014D01*
X107656851Y-64004204D02*
X108133041Y-64004204D01*
X107561613Y-64289919D02*
X107894946Y-63289919D01*
X107894946Y-63289919D02*
X108228279Y-64289919D01*
X108561613Y-63289919D02*
X108561613Y-64099442D01*
X108561613Y-64099442D02*
X108609232Y-64194680D01*
X108609232Y-64194680D02*
X108656851Y-64242300D01*
X108656851Y-64242300D02*
X108752089Y-64289919D01*
X108752089Y-64289919D02*
X108942565Y-64289919D01*
X108942565Y-64289919D02*
X109037803Y-64242300D01*
X109037803Y-64242300D02*
X109085422Y-64194680D01*
X109085422Y-64194680D02*
X109133041Y-64099442D01*
X109133041Y-64099442D02*
X109133041Y-63289919D01*
X109513994Y-63289919D02*
X110180660Y-64289919D01*
X110180660Y-63289919D02*
X109513994Y-64289919D01*
X180490184Y-56789919D02*
X180490184Y-55789919D01*
X180490184Y-55789919D02*
X180823517Y-56504204D01*
X180823517Y-56504204D02*
X181156850Y-55789919D01*
X181156850Y-55789919D02*
X181156850Y-56789919D01*
X181823517Y-55789919D02*
X182013993Y-55789919D01*
X182013993Y-55789919D02*
X182109231Y-55837538D01*
X182109231Y-55837538D02*
X182204469Y-55932776D01*
X182204469Y-55932776D02*
X182252088Y-56123252D01*
X182252088Y-56123252D02*
X182252088Y-56456585D01*
X182252088Y-56456585D02*
X182204469Y-56647061D01*
X182204469Y-56647061D02*
X182109231Y-56742300D01*
X182109231Y-56742300D02*
X182013993Y-56789919D01*
X182013993Y-56789919D02*
X181823517Y-56789919D01*
X181823517Y-56789919D02*
X181728279Y-56742300D01*
X181728279Y-56742300D02*
X181633041Y-56647061D01*
X181633041Y-56647061D02*
X181585422Y-56456585D01*
X181585422Y-56456585D02*
X181585422Y-56123252D01*
X181585422Y-56123252D02*
X181633041Y-55932776D01*
X181633041Y-55932776D02*
X181728279Y-55837538D01*
X181728279Y-55837538D02*
X181823517Y-55789919D01*
X182537803Y-55789919D02*
X183109231Y-55789919D01*
X182823517Y-56789919D02*
X182823517Y-55789919D01*
X183633041Y-55789919D02*
X183823517Y-55789919D01*
X183823517Y-55789919D02*
X183918755Y-55837538D01*
X183918755Y-55837538D02*
X184013993Y-55932776D01*
X184013993Y-55932776D02*
X184061612Y-56123252D01*
X184061612Y-56123252D02*
X184061612Y-56456585D01*
X184061612Y-56456585D02*
X184013993Y-56647061D01*
X184013993Y-56647061D02*
X183918755Y-56742300D01*
X183918755Y-56742300D02*
X183823517Y-56789919D01*
X183823517Y-56789919D02*
X183633041Y-56789919D01*
X183633041Y-56789919D02*
X183537803Y-56742300D01*
X183537803Y-56742300D02*
X183442565Y-56647061D01*
X183442565Y-56647061D02*
X183394946Y-56456585D01*
X183394946Y-56456585D02*
X183394946Y-56123252D01*
X183394946Y-56123252D02*
X183442565Y-55932776D01*
X183442565Y-55932776D02*
X183537803Y-55837538D01*
X183537803Y-55837538D02*
X183633041Y-55789919D01*
X185061612Y-56789919D02*
X184728279Y-56313728D01*
X184490184Y-56789919D02*
X184490184Y-55789919D01*
X184490184Y-55789919D02*
X184871136Y-55789919D01*
X184871136Y-55789919D02*
X184966374Y-55837538D01*
X184966374Y-55837538D02*
X185013993Y-55885157D01*
X185013993Y-55885157D02*
X185061612Y-55980395D01*
X185061612Y-55980395D02*
X185061612Y-56123252D01*
X185061612Y-56123252D02*
X185013993Y-56218490D01*
X185013993Y-56218490D02*
X184966374Y-56266109D01*
X184966374Y-56266109D02*
X184871136Y-56313728D01*
X184871136Y-56313728D02*
X184490184Y-56313728D01*
X186442565Y-55789919D02*
X186633041Y-55789919D01*
X186633041Y-55789919D02*
X186728279Y-55837538D01*
X186728279Y-55837538D02*
X186823517Y-55932776D01*
X186823517Y-55932776D02*
X186871136Y-56123252D01*
X186871136Y-56123252D02*
X186871136Y-56456585D01*
X186871136Y-56456585D02*
X186823517Y-56647061D01*
X186823517Y-56647061D02*
X186728279Y-56742300D01*
X186728279Y-56742300D02*
X186633041Y-56789919D01*
X186633041Y-56789919D02*
X186442565Y-56789919D01*
X186442565Y-56789919D02*
X186347327Y-56742300D01*
X186347327Y-56742300D02*
X186252089Y-56647061D01*
X186252089Y-56647061D02*
X186204470Y-56456585D01*
X186204470Y-56456585D02*
X186204470Y-56123252D01*
X186204470Y-56123252D02*
X186252089Y-55932776D01*
X186252089Y-55932776D02*
X186347327Y-55837538D01*
X186347327Y-55837538D02*
X186442565Y-55789919D01*
X187299708Y-55789919D02*
X187299708Y-56599442D01*
X187299708Y-56599442D02*
X187347327Y-56694680D01*
X187347327Y-56694680D02*
X187394946Y-56742300D01*
X187394946Y-56742300D02*
X187490184Y-56789919D01*
X187490184Y-56789919D02*
X187680660Y-56789919D01*
X187680660Y-56789919D02*
X187775898Y-56742300D01*
X187775898Y-56742300D02*
X187823517Y-56694680D01*
X187823517Y-56694680D02*
X187871136Y-56599442D01*
X187871136Y-56599442D02*
X187871136Y-55789919D01*
X188204470Y-55789919D02*
X188775898Y-55789919D01*
X188490184Y-56789919D02*
X188490184Y-55789919D01*
D11*
X130285705Y-140092319D02*
X130285705Y-139092319D01*
X130285705Y-139092319D02*
X130523800Y-139092319D01*
X130523800Y-139092319D02*
X130666657Y-139139938D01*
X130666657Y-139139938D02*
X130761895Y-139235176D01*
X130761895Y-139235176D02*
X130809514Y-139330414D01*
X130809514Y-139330414D02*
X130857133Y-139520890D01*
X130857133Y-139520890D02*
X130857133Y-139663747D01*
X130857133Y-139663747D02*
X130809514Y-139854223D01*
X130809514Y-139854223D02*
X130761895Y-139949461D01*
X130761895Y-139949461D02*
X130666657Y-140044700D01*
X130666657Y-140044700D02*
X130523800Y-140092319D01*
X130523800Y-140092319D02*
X130285705Y-140092319D01*
X131809514Y-140092319D02*
X131238086Y-140092319D01*
X131523800Y-140092319D02*
X131523800Y-139092319D01*
X131523800Y-139092319D02*
X131428562Y-139235176D01*
X131428562Y-139235176D02*
X131333324Y-139330414D01*
X131333324Y-139330414D02*
X131238086Y-139378033D01*
X198269633Y-57527080D02*
X198222014Y-57574700D01*
X198222014Y-57574700D02*
X198079157Y-57622319D01*
X198079157Y-57622319D02*
X197983919Y-57622319D01*
X197983919Y-57622319D02*
X197841062Y-57574700D01*
X197841062Y-57574700D02*
X197745824Y-57479461D01*
X197745824Y-57479461D02*
X197698205Y-57384223D01*
X197698205Y-57384223D02*
X197650586Y-57193747D01*
X197650586Y-57193747D02*
X197650586Y-57050890D01*
X197650586Y-57050890D02*
X197698205Y-56860414D01*
X197698205Y-56860414D02*
X197745824Y-56765176D01*
X197745824Y-56765176D02*
X197841062Y-56669938D01*
X197841062Y-56669938D02*
X197983919Y-56622319D01*
X197983919Y-56622319D02*
X198079157Y-56622319D01*
X198079157Y-56622319D02*
X198222014Y-56669938D01*
X198222014Y-56669938D02*
X198269633Y-56717557D01*
X199222014Y-57622319D02*
X198650586Y-57622319D01*
X198936300Y-57622319D02*
X198936300Y-56622319D01*
X198936300Y-56622319D02*
X198841062Y-56765176D01*
X198841062Y-56765176D02*
X198745824Y-56860414D01*
X198745824Y-56860414D02*
X198650586Y-56908033D01*
X198269633Y-67527080D02*
X198222014Y-67574700D01*
X198222014Y-67574700D02*
X198079157Y-67622319D01*
X198079157Y-67622319D02*
X197983919Y-67622319D01*
X197983919Y-67622319D02*
X197841062Y-67574700D01*
X197841062Y-67574700D02*
X197745824Y-67479461D01*
X197745824Y-67479461D02*
X197698205Y-67384223D01*
X197698205Y-67384223D02*
X197650586Y-67193747D01*
X197650586Y-67193747D02*
X197650586Y-67050890D01*
X197650586Y-67050890D02*
X197698205Y-66860414D01*
X197698205Y-66860414D02*
X197745824Y-66765176D01*
X197745824Y-66765176D02*
X197841062Y-66669938D01*
X197841062Y-66669938D02*
X197983919Y-66622319D01*
X197983919Y-66622319D02*
X198079157Y-66622319D01*
X198079157Y-66622319D02*
X198222014Y-66669938D01*
X198222014Y-66669938D02*
X198269633Y-66717557D01*
X198602967Y-66622319D02*
X199222014Y-66622319D01*
X199222014Y-66622319D02*
X198888681Y-67003271D01*
X198888681Y-67003271D02*
X199031538Y-67003271D01*
X199031538Y-67003271D02*
X199126776Y-67050890D01*
X199126776Y-67050890D02*
X199174395Y-67098509D01*
X199174395Y-67098509D02*
X199222014Y-67193747D01*
X199222014Y-67193747D02*
X199222014Y-67431842D01*
X199222014Y-67431842D02*
X199174395Y-67527080D01*
X199174395Y-67527080D02*
X199126776Y-67574700D01*
X199126776Y-67574700D02*
X199031538Y-67622319D01*
X199031538Y-67622319D02*
X198745824Y-67622319D01*
X198745824Y-67622319D02*
X198650586Y-67574700D01*
X198650586Y-67574700D02*
X198602967Y-67527080D01*
X177269633Y-67527080D02*
X177222014Y-67574700D01*
X177222014Y-67574700D02*
X177079157Y-67622319D01*
X177079157Y-67622319D02*
X176983919Y-67622319D01*
X176983919Y-67622319D02*
X176841062Y-67574700D01*
X176841062Y-67574700D02*
X176745824Y-67479461D01*
X176745824Y-67479461D02*
X176698205Y-67384223D01*
X176698205Y-67384223D02*
X176650586Y-67193747D01*
X176650586Y-67193747D02*
X176650586Y-67050890D01*
X176650586Y-67050890D02*
X176698205Y-66860414D01*
X176698205Y-66860414D02*
X176745824Y-66765176D01*
X176745824Y-66765176D02*
X176841062Y-66669938D01*
X176841062Y-66669938D02*
X176983919Y-66622319D01*
X176983919Y-66622319D02*
X177079157Y-66622319D01*
X177079157Y-66622319D02*
X177222014Y-66669938D01*
X177222014Y-66669938D02*
X177269633Y-66717557D01*
X178126776Y-66955652D02*
X178126776Y-67622319D01*
X177888681Y-66574700D02*
X177650586Y-67288985D01*
X177650586Y-67288985D02*
X178269633Y-67288985D01*
X192352966Y-56812319D02*
X192352966Y-57526604D01*
X192352966Y-57526604D02*
X192305347Y-57669461D01*
X192305347Y-57669461D02*
X192210109Y-57764700D01*
X192210109Y-57764700D02*
X192067252Y-57812319D01*
X192067252Y-57812319D02*
X191972014Y-57812319D01*
X193352966Y-57812319D02*
X192781538Y-57812319D01*
X193067252Y-57812319D02*
X193067252Y-56812319D01*
X193067252Y-56812319D02*
X192972014Y-56955176D01*
X192972014Y-56955176D02*
X192876776Y-57050414D01*
X192876776Y-57050414D02*
X192781538Y-57098033D01*
X182352966Y-59812319D02*
X182352966Y-60526604D01*
X182352966Y-60526604D02*
X182305347Y-60669461D01*
X182305347Y-60669461D02*
X182210109Y-60764700D01*
X182210109Y-60764700D02*
X182067252Y-60812319D01*
X182067252Y-60812319D02*
X181972014Y-60812319D01*
X182781538Y-59907557D02*
X182829157Y-59859938D01*
X182829157Y-59859938D02*
X182924395Y-59812319D01*
X182924395Y-59812319D02*
X183162490Y-59812319D01*
X183162490Y-59812319D02*
X183257728Y-59859938D01*
X183257728Y-59859938D02*
X183305347Y-59907557D01*
X183305347Y-59907557D02*
X183352966Y-60002795D01*
X183352966Y-60002795D02*
X183352966Y-60098033D01*
X183352966Y-60098033D02*
X183305347Y-60240890D01*
X183305347Y-60240890D02*
X182733919Y-60812319D01*
X182733919Y-60812319D02*
X183352966Y-60812319D01*
X182352966Y-66812319D02*
X182352966Y-67526604D01*
X182352966Y-67526604D02*
X182305347Y-67669461D01*
X182305347Y-67669461D02*
X182210109Y-67764700D01*
X182210109Y-67764700D02*
X182067252Y-67812319D01*
X182067252Y-67812319D02*
X181972014Y-67812319D01*
X183257728Y-66812319D02*
X183067252Y-66812319D01*
X183067252Y-66812319D02*
X182972014Y-66859938D01*
X182972014Y-66859938D02*
X182924395Y-66907557D01*
X182924395Y-66907557D02*
X182829157Y-67050414D01*
X182829157Y-67050414D02*
X182781538Y-67240890D01*
X182781538Y-67240890D02*
X182781538Y-67621842D01*
X182781538Y-67621842D02*
X182829157Y-67717080D01*
X182829157Y-67717080D02*
X182876776Y-67764700D01*
X182876776Y-67764700D02*
X182972014Y-67812319D01*
X182972014Y-67812319D02*
X183162490Y-67812319D01*
X183162490Y-67812319D02*
X183257728Y-67764700D01*
X183257728Y-67764700D02*
X183305347Y-67717080D01*
X183305347Y-67717080D02*
X183352966Y-67621842D01*
X183352966Y-67621842D02*
X183352966Y-67383747D01*
X183352966Y-67383747D02*
X183305347Y-67288509D01*
X183305347Y-67288509D02*
X183257728Y-67240890D01*
X183257728Y-67240890D02*
X183162490Y-67193271D01*
X183162490Y-67193271D02*
X182972014Y-67193271D01*
X182972014Y-67193271D02*
X182876776Y-67240890D01*
X182876776Y-67240890D02*
X182829157Y-67288509D01*
X182829157Y-67288509D02*
X182781538Y-67383747D01*
X192352966Y-66812319D02*
X192352966Y-67526604D01*
X192352966Y-67526604D02*
X192305347Y-67669461D01*
X192305347Y-67669461D02*
X192210109Y-67764700D01*
X192210109Y-67764700D02*
X192067252Y-67812319D01*
X192067252Y-67812319D02*
X191972014Y-67812319D01*
X193305347Y-66812319D02*
X192829157Y-66812319D01*
X192829157Y-66812319D02*
X192781538Y-67288509D01*
X192781538Y-67288509D02*
X192829157Y-67240890D01*
X192829157Y-67240890D02*
X192924395Y-67193271D01*
X192924395Y-67193271D02*
X193162490Y-67193271D01*
X193162490Y-67193271D02*
X193257728Y-67240890D01*
X193257728Y-67240890D02*
X193305347Y-67288509D01*
X193305347Y-67288509D02*
X193352966Y-67383747D01*
X193352966Y-67383747D02*
X193352966Y-67621842D01*
X193352966Y-67621842D02*
X193305347Y-67717080D01*
X193305347Y-67717080D02*
X193257728Y-67764700D01*
X193257728Y-67764700D02*
X193162490Y-67812319D01*
X193162490Y-67812319D02*
X192924395Y-67812319D01*
X192924395Y-67812319D02*
X192829157Y-67764700D01*
X192829157Y-67764700D02*
X192781538Y-67717080D01*
X176376776Y-59812319D02*
X176376776Y-60526604D01*
X176376776Y-60526604D02*
X176329157Y-60669461D01*
X176329157Y-60669461D02*
X176233919Y-60764700D01*
X176233919Y-60764700D02*
X176091062Y-60812319D01*
X176091062Y-60812319D02*
X175995824Y-60812319D01*
X177376776Y-60812319D02*
X176805348Y-60812319D01*
X177091062Y-60812319D02*
X177091062Y-59812319D01*
X177091062Y-59812319D02*
X176995824Y-59955176D01*
X176995824Y-59955176D02*
X176900586Y-60050414D01*
X176900586Y-60050414D02*
X176805348Y-60098033D01*
X178329157Y-60812319D02*
X177757729Y-60812319D01*
X178043443Y-60812319D02*
X178043443Y-59812319D01*
X178043443Y-59812319D02*
X177948205Y-59955176D01*
X177948205Y-59955176D02*
X177852967Y-60050414D01*
X177852967Y-60050414D02*
X177757729Y-60098033D01*
X89234395Y-112042319D02*
X89234395Y-112851842D01*
X89234395Y-112851842D02*
X89282014Y-112947080D01*
X89282014Y-112947080D02*
X89329633Y-112994700D01*
X89329633Y-112994700D02*
X89424871Y-113042319D01*
X89424871Y-113042319D02*
X89615347Y-113042319D01*
X89615347Y-113042319D02*
X89710585Y-112994700D01*
X89710585Y-112994700D02*
X89758204Y-112947080D01*
X89758204Y-112947080D02*
X89805823Y-112851842D01*
X89805823Y-112851842D02*
X89805823Y-112042319D01*
X90186776Y-112042319D02*
X90805823Y-112042319D01*
X90805823Y-112042319D02*
X90472490Y-112423271D01*
X90472490Y-112423271D02*
X90615347Y-112423271D01*
X90615347Y-112423271D02*
X90710585Y-112470890D01*
X90710585Y-112470890D02*
X90758204Y-112518509D01*
X90758204Y-112518509D02*
X90805823Y-112613747D01*
X90805823Y-112613747D02*
X90805823Y-112851842D01*
X90805823Y-112851842D02*
X90758204Y-112947080D01*
X90758204Y-112947080D02*
X90710585Y-112994700D01*
X90710585Y-112994700D02*
X90615347Y-113042319D01*
X90615347Y-113042319D02*
X90329633Y-113042319D01*
X90329633Y-113042319D02*
X90234395Y-112994700D01*
X90234395Y-112994700D02*
X90186776Y-112947080D01*
X111234395Y-104152319D02*
X111234395Y-104961842D01*
X111234395Y-104961842D02*
X111282014Y-105057080D01*
X111282014Y-105057080D02*
X111329633Y-105104700D01*
X111329633Y-105104700D02*
X111424871Y-105152319D01*
X111424871Y-105152319D02*
X111615347Y-105152319D01*
X111615347Y-105152319D02*
X111710585Y-105104700D01*
X111710585Y-105104700D02*
X111758204Y-105057080D01*
X111758204Y-105057080D02*
X111805823Y-104961842D01*
X111805823Y-104961842D02*
X111805823Y-104152319D01*
X112234395Y-104247557D02*
X112282014Y-104199938D01*
X112282014Y-104199938D02*
X112377252Y-104152319D01*
X112377252Y-104152319D02*
X112615347Y-104152319D01*
X112615347Y-104152319D02*
X112710585Y-104199938D01*
X112710585Y-104199938D02*
X112758204Y-104247557D01*
X112758204Y-104247557D02*
X112805823Y-104342795D01*
X112805823Y-104342795D02*
X112805823Y-104438033D01*
X112805823Y-104438033D02*
X112758204Y-104580890D01*
X112758204Y-104580890D02*
X112186776Y-105152319D01*
X112186776Y-105152319D02*
X112805823Y-105152319D01*
X100234395Y-104152319D02*
X100234395Y-104961842D01*
X100234395Y-104961842D02*
X100282014Y-105057080D01*
X100282014Y-105057080D02*
X100329633Y-105104700D01*
X100329633Y-105104700D02*
X100424871Y-105152319D01*
X100424871Y-105152319D02*
X100615347Y-105152319D01*
X100615347Y-105152319D02*
X100710585Y-105104700D01*
X100710585Y-105104700D02*
X100758204Y-105057080D01*
X100758204Y-105057080D02*
X100805823Y-104961842D01*
X100805823Y-104961842D02*
X100805823Y-104152319D01*
X101805823Y-105152319D02*
X101234395Y-105152319D01*
X101520109Y-105152319D02*
X101520109Y-104152319D01*
X101520109Y-104152319D02*
X101424871Y-104295176D01*
X101424871Y-104295176D02*
X101329633Y-104390414D01*
X101329633Y-104390414D02*
X101234395Y-104438033D01*
X104602967Y-70824700D02*
X104745824Y-70872319D01*
X104745824Y-70872319D02*
X104983919Y-70872319D01*
X104983919Y-70872319D02*
X105079157Y-70824700D01*
X105079157Y-70824700D02*
X105126776Y-70777080D01*
X105126776Y-70777080D02*
X105174395Y-70681842D01*
X105174395Y-70681842D02*
X105174395Y-70586604D01*
X105174395Y-70586604D02*
X105126776Y-70491366D01*
X105126776Y-70491366D02*
X105079157Y-70443747D01*
X105079157Y-70443747D02*
X104983919Y-70396128D01*
X104983919Y-70396128D02*
X104793443Y-70348509D01*
X104793443Y-70348509D02*
X104698205Y-70300890D01*
X104698205Y-70300890D02*
X104650586Y-70253271D01*
X104650586Y-70253271D02*
X104602967Y-70158033D01*
X104602967Y-70158033D02*
X104602967Y-70062795D01*
X104602967Y-70062795D02*
X104650586Y-69967557D01*
X104650586Y-69967557D02*
X104698205Y-69919938D01*
X104698205Y-69919938D02*
X104793443Y-69872319D01*
X104793443Y-69872319D02*
X105031538Y-69872319D01*
X105031538Y-69872319D02*
X105174395Y-69919938D01*
X105507729Y-69872319D02*
X105745824Y-70872319D01*
X105745824Y-70872319D02*
X105936300Y-70158033D01*
X105936300Y-70158033D02*
X106126776Y-70872319D01*
X106126776Y-70872319D02*
X106364872Y-69872319D01*
X107269633Y-70872319D02*
X106698205Y-70872319D01*
X106983919Y-70872319D02*
X106983919Y-69872319D01*
X106983919Y-69872319D02*
X106888681Y-70015176D01*
X106888681Y-70015176D02*
X106793443Y-70110414D01*
X106793443Y-70110414D02*
X106698205Y-70158033D01*
X98605823Y-139472319D02*
X98272490Y-138996128D01*
X98034395Y-139472319D02*
X98034395Y-138472319D01*
X98034395Y-138472319D02*
X98415347Y-138472319D01*
X98415347Y-138472319D02*
X98510585Y-138519938D01*
X98510585Y-138519938D02*
X98558204Y-138567557D01*
X98558204Y-138567557D02*
X98605823Y-138662795D01*
X98605823Y-138662795D02*
X98605823Y-138805652D01*
X98605823Y-138805652D02*
X98558204Y-138900890D01*
X98558204Y-138900890D02*
X98510585Y-138948509D01*
X98510585Y-138948509D02*
X98415347Y-138996128D01*
X98415347Y-138996128D02*
X98034395Y-138996128D01*
X99034395Y-139472319D02*
X99034395Y-138472319D01*
X99034395Y-138472319D02*
X99605823Y-139472319D01*
X99605823Y-139472319D02*
X99605823Y-138472319D01*
X100605823Y-139472319D02*
X100034395Y-139472319D01*
X100320109Y-139472319D02*
X100320109Y-138472319D01*
X100320109Y-138472319D02*
X100224871Y-138615176D01*
X100224871Y-138615176D02*
X100129633Y-138710414D01*
X100129633Y-138710414D02*
X100034395Y-138758033D01*
X140019633Y-140452319D02*
X139686300Y-139976128D01*
X139448205Y-140452319D02*
X139448205Y-139452319D01*
X139448205Y-139452319D02*
X139829157Y-139452319D01*
X139829157Y-139452319D02*
X139924395Y-139499938D01*
X139924395Y-139499938D02*
X139972014Y-139547557D01*
X139972014Y-139547557D02*
X140019633Y-139642795D01*
X140019633Y-139642795D02*
X140019633Y-139785652D01*
X140019633Y-139785652D02*
X139972014Y-139880890D01*
X139972014Y-139880890D02*
X139924395Y-139928509D01*
X139924395Y-139928509D02*
X139829157Y-139976128D01*
X139829157Y-139976128D02*
X139448205Y-139976128D01*
X140972014Y-140452319D02*
X140400586Y-140452319D01*
X140686300Y-140452319D02*
X140686300Y-139452319D01*
X140686300Y-139452319D02*
X140591062Y-139595176D01*
X140591062Y-139595176D02*
X140495824Y-139690414D01*
X140495824Y-139690414D02*
X140400586Y-139738033D01*
X92376776Y-93312319D02*
X92376776Y-94026604D01*
X92376776Y-94026604D02*
X92329157Y-94169461D01*
X92329157Y-94169461D02*
X92233919Y-94264700D01*
X92233919Y-94264700D02*
X92091062Y-94312319D01*
X92091062Y-94312319D02*
X91995824Y-94312319D01*
X93376776Y-94312319D02*
X92805348Y-94312319D01*
X93091062Y-94312319D02*
X93091062Y-93312319D01*
X93091062Y-93312319D02*
X92995824Y-93455176D01*
X92995824Y-93455176D02*
X92900586Y-93550414D01*
X92900586Y-93550414D02*
X92805348Y-93598033D01*
X93710110Y-93312319D02*
X94376776Y-93312319D01*
X94376776Y-93312319D02*
X93948205Y-94312319D01*
X199376776Y-123812319D02*
X199376776Y-124526604D01*
X199376776Y-124526604D02*
X199329157Y-124669461D01*
X199329157Y-124669461D02*
X199233919Y-124764700D01*
X199233919Y-124764700D02*
X199091062Y-124812319D01*
X199091062Y-124812319D02*
X198995824Y-124812319D01*
X200376776Y-124812319D02*
X199805348Y-124812319D01*
X200091062Y-124812319D02*
X200091062Y-123812319D01*
X200091062Y-123812319D02*
X199995824Y-123955176D01*
X199995824Y-123955176D02*
X199900586Y-124050414D01*
X199900586Y-124050414D02*
X199805348Y-124098033D01*
X201233919Y-123812319D02*
X201043443Y-123812319D01*
X201043443Y-123812319D02*
X200948205Y-123859938D01*
X200948205Y-123859938D02*
X200900586Y-123907557D01*
X200900586Y-123907557D02*
X200805348Y-124050414D01*
X200805348Y-124050414D02*
X200757729Y-124240890D01*
X200757729Y-124240890D02*
X200757729Y-124621842D01*
X200757729Y-124621842D02*
X200805348Y-124717080D01*
X200805348Y-124717080D02*
X200852967Y-124764700D01*
X200852967Y-124764700D02*
X200948205Y-124812319D01*
X200948205Y-124812319D02*
X201138681Y-124812319D01*
X201138681Y-124812319D02*
X201233919Y-124764700D01*
X201233919Y-124764700D02*
X201281538Y-124717080D01*
X201281538Y-124717080D02*
X201329157Y-124621842D01*
X201329157Y-124621842D02*
X201329157Y-124383747D01*
X201329157Y-124383747D02*
X201281538Y-124288509D01*
X201281538Y-124288509D02*
X201233919Y-124240890D01*
X201233919Y-124240890D02*
X201138681Y-124193271D01*
X201138681Y-124193271D02*
X200948205Y-124193271D01*
X200948205Y-124193271D02*
X200852967Y-124240890D01*
X200852967Y-124240890D02*
X200805348Y-124288509D01*
X200805348Y-124288509D02*
X200757729Y-124383747D01*
X86876776Y-54812319D02*
X86876776Y-55526604D01*
X86876776Y-55526604D02*
X86829157Y-55669461D01*
X86829157Y-55669461D02*
X86733919Y-55764700D01*
X86733919Y-55764700D02*
X86591062Y-55812319D01*
X86591062Y-55812319D02*
X86495824Y-55812319D01*
X87876776Y-55812319D02*
X87305348Y-55812319D01*
X87591062Y-55812319D02*
X87591062Y-54812319D01*
X87591062Y-54812319D02*
X87495824Y-54955176D01*
X87495824Y-54955176D02*
X87400586Y-55050414D01*
X87400586Y-55050414D02*
X87305348Y-55098033D01*
X88781538Y-54812319D02*
X88305348Y-54812319D01*
X88305348Y-54812319D02*
X88257729Y-55288509D01*
X88257729Y-55288509D02*
X88305348Y-55240890D01*
X88305348Y-55240890D02*
X88400586Y-55193271D01*
X88400586Y-55193271D02*
X88638681Y-55193271D01*
X88638681Y-55193271D02*
X88733919Y-55240890D01*
X88733919Y-55240890D02*
X88781538Y-55288509D01*
X88781538Y-55288509D02*
X88829157Y-55383747D01*
X88829157Y-55383747D02*
X88829157Y-55621842D01*
X88829157Y-55621842D02*
X88781538Y-55717080D01*
X88781538Y-55717080D02*
X88733919Y-55764700D01*
X88733919Y-55764700D02*
X88638681Y-55812319D01*
X88638681Y-55812319D02*
X88400586Y-55812319D01*
X88400586Y-55812319D02*
X88305348Y-55764700D01*
X88305348Y-55764700D02*
X88257729Y-55717080D01*
X86876776Y-62312319D02*
X86876776Y-63026604D01*
X86876776Y-63026604D02*
X86829157Y-63169461D01*
X86829157Y-63169461D02*
X86733919Y-63264700D01*
X86733919Y-63264700D02*
X86591062Y-63312319D01*
X86591062Y-63312319D02*
X86495824Y-63312319D01*
X87876776Y-63312319D02*
X87305348Y-63312319D01*
X87591062Y-63312319D02*
X87591062Y-62312319D01*
X87591062Y-62312319D02*
X87495824Y-62455176D01*
X87495824Y-62455176D02*
X87400586Y-62550414D01*
X87400586Y-62550414D02*
X87305348Y-62598033D01*
X88733919Y-62645652D02*
X88733919Y-63312319D01*
X88495824Y-62264700D02*
X88257729Y-62978985D01*
X88257729Y-62978985D02*
X88876776Y-62978985D01*
X108081119Y-58227023D02*
X108795404Y-58227023D01*
X108795404Y-58227023D02*
X108938261Y-58274642D01*
X108938261Y-58274642D02*
X109033500Y-58369880D01*
X109033500Y-58369880D02*
X109081119Y-58512737D01*
X109081119Y-58512737D02*
X109081119Y-58607975D01*
X109081119Y-57227023D02*
X109081119Y-57798451D01*
X109081119Y-57512737D02*
X108081119Y-57512737D01*
X108081119Y-57512737D02*
X108223976Y-57607975D01*
X108223976Y-57607975D02*
X108319214Y-57703213D01*
X108319214Y-57703213D02*
X108366833Y-57798451D01*
X108081119Y-56893689D02*
X108081119Y-56274642D01*
X108081119Y-56274642D02*
X108462071Y-56607975D01*
X108462071Y-56607975D02*
X108462071Y-56465118D01*
X108462071Y-56465118D02*
X108509690Y-56369880D01*
X108509690Y-56369880D02*
X108557309Y-56322261D01*
X108557309Y-56322261D02*
X108652547Y-56274642D01*
X108652547Y-56274642D02*
X108890642Y-56274642D01*
X108890642Y-56274642D02*
X108985880Y-56322261D01*
X108985880Y-56322261D02*
X109033500Y-56369880D01*
X109033500Y-56369880D02*
X109081119Y-56465118D01*
X109081119Y-56465118D02*
X109081119Y-56750832D01*
X109081119Y-56750832D02*
X109033500Y-56846070D01*
X109033500Y-56846070D02*
X108985880Y-56893689D01*
X123081119Y-58227023D02*
X123795404Y-58227023D01*
X123795404Y-58227023D02*
X123938261Y-58274642D01*
X123938261Y-58274642D02*
X124033500Y-58369880D01*
X124033500Y-58369880D02*
X124081119Y-58512737D01*
X124081119Y-58512737D02*
X124081119Y-58607975D01*
X124081119Y-57227023D02*
X124081119Y-57798451D01*
X124081119Y-57512737D02*
X123081119Y-57512737D01*
X123081119Y-57512737D02*
X123223976Y-57607975D01*
X123223976Y-57607975D02*
X123319214Y-57703213D01*
X123319214Y-57703213D02*
X123366833Y-57798451D01*
X123176357Y-56846070D02*
X123128738Y-56798451D01*
X123128738Y-56798451D02*
X123081119Y-56703213D01*
X123081119Y-56703213D02*
X123081119Y-56465118D01*
X123081119Y-56465118D02*
X123128738Y-56369880D01*
X123128738Y-56369880D02*
X123176357Y-56322261D01*
X123176357Y-56322261D02*
X123271595Y-56274642D01*
X123271595Y-56274642D02*
X123366833Y-56274642D01*
X123366833Y-56274642D02*
X123509690Y-56322261D01*
X123509690Y-56322261D02*
X124081119Y-56893689D01*
X124081119Y-56893689D02*
X124081119Y-56274642D01*
X187376776Y-129312319D02*
X187376776Y-130026604D01*
X187376776Y-130026604D02*
X187329157Y-130169461D01*
X187329157Y-130169461D02*
X187233919Y-130264700D01*
X187233919Y-130264700D02*
X187091062Y-130312319D01*
X187091062Y-130312319D02*
X186995824Y-130312319D01*
X188376776Y-130312319D02*
X187805348Y-130312319D01*
X188091062Y-130312319D02*
X188091062Y-129312319D01*
X188091062Y-129312319D02*
X187995824Y-129455176D01*
X187995824Y-129455176D02*
X187900586Y-129550414D01*
X187900586Y-129550414D02*
X187805348Y-129598033D01*
X188995824Y-129312319D02*
X189091062Y-129312319D01*
X189091062Y-129312319D02*
X189186300Y-129359938D01*
X189186300Y-129359938D02*
X189233919Y-129407557D01*
X189233919Y-129407557D02*
X189281538Y-129502795D01*
X189281538Y-129502795D02*
X189329157Y-129693271D01*
X189329157Y-129693271D02*
X189329157Y-129931366D01*
X189329157Y-129931366D02*
X189281538Y-130121842D01*
X189281538Y-130121842D02*
X189233919Y-130217080D01*
X189233919Y-130217080D02*
X189186300Y-130264700D01*
X189186300Y-130264700D02*
X189091062Y-130312319D01*
X189091062Y-130312319D02*
X188995824Y-130312319D01*
X188995824Y-130312319D02*
X188900586Y-130264700D01*
X188900586Y-130264700D02*
X188852967Y-130217080D01*
X188852967Y-130217080D02*
X188805348Y-130121842D01*
X188805348Y-130121842D02*
X188757729Y-129931366D01*
X188757729Y-129931366D02*
X188757729Y-129693271D01*
X188757729Y-129693271D02*
X188805348Y-129502795D01*
X188805348Y-129502795D02*
X188852967Y-129407557D01*
X188852967Y-129407557D02*
X188900586Y-129359938D01*
X188900586Y-129359938D02*
X188995824Y-129312319D01*
X182852966Y-129312319D02*
X182852966Y-130026604D01*
X182852966Y-130026604D02*
X182805347Y-130169461D01*
X182805347Y-130169461D02*
X182710109Y-130264700D01*
X182710109Y-130264700D02*
X182567252Y-130312319D01*
X182567252Y-130312319D02*
X182472014Y-130312319D01*
X183376776Y-130312319D02*
X183567252Y-130312319D01*
X183567252Y-130312319D02*
X183662490Y-130264700D01*
X183662490Y-130264700D02*
X183710109Y-130217080D01*
X183710109Y-130217080D02*
X183805347Y-130074223D01*
X183805347Y-130074223D02*
X183852966Y-129883747D01*
X183852966Y-129883747D02*
X183852966Y-129502795D01*
X183852966Y-129502795D02*
X183805347Y-129407557D01*
X183805347Y-129407557D02*
X183757728Y-129359938D01*
X183757728Y-129359938D02*
X183662490Y-129312319D01*
X183662490Y-129312319D02*
X183472014Y-129312319D01*
X183472014Y-129312319D02*
X183376776Y-129359938D01*
X183376776Y-129359938D02*
X183329157Y-129407557D01*
X183329157Y-129407557D02*
X183281538Y-129502795D01*
X183281538Y-129502795D02*
X183281538Y-129740890D01*
X183281538Y-129740890D02*
X183329157Y-129836128D01*
X183329157Y-129836128D02*
X183376776Y-129883747D01*
X183376776Y-129883747D02*
X183472014Y-129931366D01*
X183472014Y-129931366D02*
X183662490Y-129931366D01*
X183662490Y-129931366D02*
X183757728Y-129883747D01*
X183757728Y-129883747D02*
X183805347Y-129836128D01*
X183805347Y-129836128D02*
X183852966Y-129740890D01*
X87352966Y-83312319D02*
X87352966Y-84026604D01*
X87352966Y-84026604D02*
X87305347Y-84169461D01*
X87305347Y-84169461D02*
X87210109Y-84264700D01*
X87210109Y-84264700D02*
X87067252Y-84312319D01*
X87067252Y-84312319D02*
X86972014Y-84312319D01*
X87972014Y-83740890D02*
X87876776Y-83693271D01*
X87876776Y-83693271D02*
X87829157Y-83645652D01*
X87829157Y-83645652D02*
X87781538Y-83550414D01*
X87781538Y-83550414D02*
X87781538Y-83502795D01*
X87781538Y-83502795D02*
X87829157Y-83407557D01*
X87829157Y-83407557D02*
X87876776Y-83359938D01*
X87876776Y-83359938D02*
X87972014Y-83312319D01*
X87972014Y-83312319D02*
X88162490Y-83312319D01*
X88162490Y-83312319D02*
X88257728Y-83359938D01*
X88257728Y-83359938D02*
X88305347Y-83407557D01*
X88305347Y-83407557D02*
X88352966Y-83502795D01*
X88352966Y-83502795D02*
X88352966Y-83550414D01*
X88352966Y-83550414D02*
X88305347Y-83645652D01*
X88305347Y-83645652D02*
X88257728Y-83693271D01*
X88257728Y-83693271D02*
X88162490Y-83740890D01*
X88162490Y-83740890D02*
X87972014Y-83740890D01*
X87972014Y-83740890D02*
X87876776Y-83788509D01*
X87876776Y-83788509D02*
X87829157Y-83836128D01*
X87829157Y-83836128D02*
X87781538Y-83931366D01*
X87781538Y-83931366D02*
X87781538Y-84121842D01*
X87781538Y-84121842D02*
X87829157Y-84217080D01*
X87829157Y-84217080D02*
X87876776Y-84264700D01*
X87876776Y-84264700D02*
X87972014Y-84312319D01*
X87972014Y-84312319D02*
X88162490Y-84312319D01*
X88162490Y-84312319D02*
X88257728Y-84264700D01*
X88257728Y-84264700D02*
X88305347Y-84217080D01*
X88305347Y-84217080D02*
X88352966Y-84121842D01*
X88352966Y-84121842D02*
X88352966Y-83931366D01*
X88352966Y-83931366D02*
X88305347Y-83836128D01*
X88305347Y-83836128D02*
X88257728Y-83788509D01*
X88257728Y-83788509D02*
X88162490Y-83740890D01*
X87352966Y-71312319D02*
X87352966Y-72026604D01*
X87352966Y-72026604D02*
X87305347Y-72169461D01*
X87305347Y-72169461D02*
X87210109Y-72264700D01*
X87210109Y-72264700D02*
X87067252Y-72312319D01*
X87067252Y-72312319D02*
X86972014Y-72312319D01*
X87733919Y-71312319D02*
X88400585Y-71312319D01*
X88400585Y-71312319D02*
X87972014Y-72312319D01*
X97352966Y-54812319D02*
X97352966Y-55526604D01*
X97352966Y-55526604D02*
X97305347Y-55669461D01*
X97305347Y-55669461D02*
X97210109Y-55764700D01*
X97210109Y-55764700D02*
X97067252Y-55812319D01*
X97067252Y-55812319D02*
X96972014Y-55812319D01*
X98257728Y-55145652D02*
X98257728Y-55812319D01*
X98019633Y-54764700D02*
X97781538Y-55478985D01*
X97781538Y-55478985D02*
X98400585Y-55478985D01*
X92352966Y-54812319D02*
X92352966Y-55526604D01*
X92352966Y-55526604D02*
X92305347Y-55669461D01*
X92305347Y-55669461D02*
X92210109Y-55764700D01*
X92210109Y-55764700D02*
X92067252Y-55812319D01*
X92067252Y-55812319D02*
X91972014Y-55812319D01*
X92733919Y-54812319D02*
X93352966Y-54812319D01*
X93352966Y-54812319D02*
X93019633Y-55193271D01*
X93019633Y-55193271D02*
X93162490Y-55193271D01*
X93162490Y-55193271D02*
X93257728Y-55240890D01*
X93257728Y-55240890D02*
X93305347Y-55288509D01*
X93305347Y-55288509D02*
X93352966Y-55383747D01*
X93352966Y-55383747D02*
X93352966Y-55621842D01*
X93352966Y-55621842D02*
X93305347Y-55717080D01*
X93305347Y-55717080D02*
X93257728Y-55764700D01*
X93257728Y-55764700D02*
X93162490Y-55812319D01*
X93162490Y-55812319D02*
X92876776Y-55812319D01*
X92876776Y-55812319D02*
X92781538Y-55764700D01*
X92781538Y-55764700D02*
X92733919Y-55717080D01*
X177269633Y-131527080D02*
X177222014Y-131574700D01*
X177222014Y-131574700D02*
X177079157Y-131622319D01*
X177079157Y-131622319D02*
X176983919Y-131622319D01*
X176983919Y-131622319D02*
X176841062Y-131574700D01*
X176841062Y-131574700D02*
X176745824Y-131479461D01*
X176745824Y-131479461D02*
X176698205Y-131384223D01*
X176698205Y-131384223D02*
X176650586Y-131193747D01*
X176650586Y-131193747D02*
X176650586Y-131050890D01*
X176650586Y-131050890D02*
X176698205Y-130860414D01*
X176698205Y-130860414D02*
X176745824Y-130765176D01*
X176745824Y-130765176D02*
X176841062Y-130669938D01*
X176841062Y-130669938D02*
X176983919Y-130622319D01*
X176983919Y-130622319D02*
X177079157Y-130622319D01*
X177079157Y-130622319D02*
X177222014Y-130669938D01*
X177222014Y-130669938D02*
X177269633Y-130717557D01*
X178126776Y-130622319D02*
X177936300Y-130622319D01*
X177936300Y-130622319D02*
X177841062Y-130669938D01*
X177841062Y-130669938D02*
X177793443Y-130717557D01*
X177793443Y-130717557D02*
X177698205Y-130860414D01*
X177698205Y-130860414D02*
X177650586Y-131050890D01*
X177650586Y-131050890D02*
X177650586Y-131431842D01*
X177650586Y-131431842D02*
X177698205Y-131527080D01*
X177698205Y-131527080D02*
X177745824Y-131574700D01*
X177745824Y-131574700D02*
X177841062Y-131622319D01*
X177841062Y-131622319D02*
X178031538Y-131622319D01*
X178031538Y-131622319D02*
X178126776Y-131574700D01*
X178126776Y-131574700D02*
X178174395Y-131527080D01*
X178174395Y-131527080D02*
X178222014Y-131431842D01*
X178222014Y-131431842D02*
X178222014Y-131193747D01*
X178222014Y-131193747D02*
X178174395Y-131098509D01*
X178174395Y-131098509D02*
X178126776Y-131050890D01*
X178126776Y-131050890D02*
X178031538Y-131003271D01*
X178031538Y-131003271D02*
X177841062Y-131003271D01*
X177841062Y-131003271D02*
X177745824Y-131050890D01*
X177745824Y-131050890D02*
X177698205Y-131098509D01*
X177698205Y-131098509D02*
X177650586Y-131193747D01*
X169047033Y-132027080D02*
X168999414Y-132074700D01*
X168999414Y-132074700D02*
X168856557Y-132122319D01*
X168856557Y-132122319D02*
X168761319Y-132122319D01*
X168761319Y-132122319D02*
X168618462Y-132074700D01*
X168618462Y-132074700D02*
X168523224Y-131979461D01*
X168523224Y-131979461D02*
X168475605Y-131884223D01*
X168475605Y-131884223D02*
X168427986Y-131693747D01*
X168427986Y-131693747D02*
X168427986Y-131550890D01*
X168427986Y-131550890D02*
X168475605Y-131360414D01*
X168475605Y-131360414D02*
X168523224Y-131265176D01*
X168523224Y-131265176D02*
X168618462Y-131169938D01*
X168618462Y-131169938D02*
X168761319Y-131122319D01*
X168761319Y-131122319D02*
X168856557Y-131122319D01*
X168856557Y-131122319D02*
X168999414Y-131169938D01*
X168999414Y-131169938D02*
X169047033Y-131217557D01*
X169951795Y-131122319D02*
X169475605Y-131122319D01*
X169475605Y-131122319D02*
X169427986Y-131598509D01*
X169427986Y-131598509D02*
X169475605Y-131550890D01*
X169475605Y-131550890D02*
X169570843Y-131503271D01*
X169570843Y-131503271D02*
X169808938Y-131503271D01*
X169808938Y-131503271D02*
X169904176Y-131550890D01*
X169904176Y-131550890D02*
X169951795Y-131598509D01*
X169951795Y-131598509D02*
X169999414Y-131693747D01*
X169999414Y-131693747D02*
X169999414Y-131931842D01*
X169999414Y-131931842D02*
X169951795Y-132027080D01*
X169951795Y-132027080D02*
X169904176Y-132074700D01*
X169904176Y-132074700D02*
X169808938Y-132122319D01*
X169808938Y-132122319D02*
X169570843Y-132122319D01*
X169570843Y-132122319D02*
X169475605Y-132074700D01*
X169475605Y-132074700D02*
X169427986Y-132027080D01*
X170269633Y-67527080D02*
X170222014Y-67574700D01*
X170222014Y-67574700D02*
X170079157Y-67622319D01*
X170079157Y-67622319D02*
X169983919Y-67622319D01*
X169983919Y-67622319D02*
X169841062Y-67574700D01*
X169841062Y-67574700D02*
X169745824Y-67479461D01*
X169745824Y-67479461D02*
X169698205Y-67384223D01*
X169698205Y-67384223D02*
X169650586Y-67193747D01*
X169650586Y-67193747D02*
X169650586Y-67050890D01*
X169650586Y-67050890D02*
X169698205Y-66860414D01*
X169698205Y-66860414D02*
X169745824Y-66765176D01*
X169745824Y-66765176D02*
X169841062Y-66669938D01*
X169841062Y-66669938D02*
X169983919Y-66622319D01*
X169983919Y-66622319D02*
X170079157Y-66622319D01*
X170079157Y-66622319D02*
X170222014Y-66669938D01*
X170222014Y-66669938D02*
X170269633Y-66717557D01*
X170650586Y-66717557D02*
X170698205Y-66669938D01*
X170698205Y-66669938D02*
X170793443Y-66622319D01*
X170793443Y-66622319D02*
X171031538Y-66622319D01*
X171031538Y-66622319D02*
X171126776Y-66669938D01*
X171126776Y-66669938D02*
X171174395Y-66717557D01*
X171174395Y-66717557D02*
X171222014Y-66812795D01*
X171222014Y-66812795D02*
X171222014Y-66908033D01*
X171222014Y-66908033D02*
X171174395Y-67050890D01*
X171174395Y-67050890D02*
X170602967Y-67622319D01*
X170602967Y-67622319D02*
X171222014Y-67622319D01*
X153742014Y-74276604D02*
X154218204Y-74276604D01*
X153646776Y-74562319D02*
X153980109Y-73562319D01*
X153980109Y-73562319D02*
X154313442Y-74562319D01*
X155170585Y-74562319D02*
X154599157Y-74562319D01*
X154884871Y-74562319D02*
X154884871Y-73562319D01*
X154884871Y-73562319D02*
X154789633Y-73705176D01*
X154789633Y-73705176D02*
X154694395Y-73800414D01*
X154694395Y-73800414D02*
X154599157Y-73848033D01*
D14*
%TO.C,D1*%
X133523800Y-140332500D02*
X127663800Y-140332500D01*
X127663800Y-143502500D02*
X133523800Y-143502500D01*
X127663800Y-140332500D02*
X127663800Y-143502500D01*
%TO.C,C1*%
X200556300Y-60417500D02*
G75*
G02*
X196316300Y-60417500I-2120000J0D01*
G01*
X196316300Y-60417500D02*
G75*
G02*
X200556300Y-60417500I2120000J0D01*
G01*
X200517300Y-60047500D02*
X200517300Y-60787500D01*
X200477300Y-59880500D02*
X200477300Y-60954500D01*
X200437300Y-59753500D02*
X200437300Y-61081500D01*
X200397300Y-59649500D02*
X200397300Y-61185500D01*
X200357300Y-59558500D02*
X200357300Y-61276500D01*
X200317300Y-59477500D02*
X200317300Y-61357500D01*
X200277300Y-59404500D02*
X200277300Y-61430500D01*
X200237300Y-59337500D02*
X200237300Y-61497500D01*
X200197300Y-59275500D02*
X200197300Y-61559500D01*
X200157300Y-59217500D02*
X200157300Y-61617500D01*
X200117300Y-59163500D02*
X200117300Y-61671500D01*
X200077300Y-59113500D02*
X200077300Y-61721500D01*
X200037300Y-59066500D02*
X200037300Y-61768500D01*
X199997300Y-61257500D02*
X199997300Y-61813500D01*
X199997300Y-59021500D02*
X199997300Y-59577500D01*
X199957300Y-61257500D02*
X199957300Y-61855500D01*
X199957300Y-58979500D02*
X199957300Y-59577500D01*
X199917300Y-61257500D02*
X199917300Y-61895500D01*
X199917300Y-58939500D02*
X199917300Y-59577500D01*
X199877300Y-61257500D02*
X199877300Y-61933500D01*
X199877300Y-58901500D02*
X199877300Y-59577500D01*
X199837300Y-61257500D02*
X199837300Y-61969500D01*
X199837300Y-58865500D02*
X199837300Y-59577500D01*
X199797300Y-61257500D02*
X199797300Y-62004500D01*
X199797300Y-58830500D02*
X199797300Y-59577500D01*
X199757300Y-61257500D02*
X199757300Y-62036500D01*
X199757300Y-58798500D02*
X199757300Y-59577500D01*
X199717300Y-61257500D02*
X199717300Y-62067500D01*
X199717300Y-58767500D02*
X199717300Y-59577500D01*
X199677300Y-61257500D02*
X199677300Y-62097500D01*
X199677300Y-58737500D02*
X199677300Y-59577500D01*
X199637300Y-61257500D02*
X199637300Y-62125500D01*
X199637300Y-58709500D02*
X199637300Y-59577500D01*
X199597300Y-61257500D02*
X199597300Y-62152500D01*
X199597300Y-58682500D02*
X199597300Y-59577500D01*
X199557300Y-61257500D02*
X199557300Y-62177500D01*
X199557300Y-58657500D02*
X199557300Y-59577500D01*
X199517300Y-61257500D02*
X199517300Y-62202500D01*
X199517300Y-58632500D02*
X199517300Y-59577500D01*
X199477300Y-61257500D02*
X199477300Y-62225500D01*
X199477300Y-58609500D02*
X199477300Y-59577500D01*
X199437300Y-61257500D02*
X199437300Y-62247500D01*
X199437300Y-58587500D02*
X199437300Y-59577500D01*
X199397300Y-61257500D02*
X199397300Y-62268500D01*
X199397300Y-58566500D02*
X199397300Y-59577500D01*
X199357300Y-61257500D02*
X199357300Y-62287500D01*
X199357300Y-58547500D02*
X199357300Y-59577500D01*
X199317300Y-61257500D02*
X199317300Y-62306500D01*
X199317300Y-58528500D02*
X199317300Y-59577500D01*
X199277300Y-61257500D02*
X199277300Y-62324500D01*
X199277300Y-58510500D02*
X199277300Y-59577500D01*
X199237300Y-61257500D02*
X199237300Y-62341500D01*
X199237300Y-58493500D02*
X199237300Y-59577500D01*
X199197300Y-61257500D02*
X199197300Y-62357500D01*
X199197300Y-58477500D02*
X199197300Y-59577500D01*
X199157300Y-61257500D02*
X199157300Y-62371500D01*
X199157300Y-58463500D02*
X199157300Y-59577500D01*
X199116300Y-61257500D02*
X199116300Y-62385500D01*
X199116300Y-58449500D02*
X199116300Y-59577500D01*
X199076300Y-61257500D02*
X199076300Y-62399500D01*
X199076300Y-58435500D02*
X199076300Y-59577500D01*
X199036300Y-61257500D02*
X199036300Y-62411500D01*
X199036300Y-58423500D02*
X199036300Y-59577500D01*
X198996300Y-61257500D02*
X198996300Y-62422500D01*
X198996300Y-58412500D02*
X198996300Y-59577500D01*
X198956300Y-61257500D02*
X198956300Y-62433500D01*
X198956300Y-58401500D02*
X198956300Y-59577500D01*
X198916300Y-61257500D02*
X198916300Y-62442500D01*
X198916300Y-58392500D02*
X198916300Y-59577500D01*
X198876300Y-61257500D02*
X198876300Y-62451500D01*
X198876300Y-58383500D02*
X198876300Y-59577500D01*
X198836300Y-61257500D02*
X198836300Y-62459500D01*
X198836300Y-58375500D02*
X198836300Y-59577500D01*
X198796300Y-61257500D02*
X198796300Y-62467500D01*
X198796300Y-58367500D02*
X198796300Y-59577500D01*
X198756300Y-61257500D02*
X198756300Y-62473500D01*
X198756300Y-58361500D02*
X198756300Y-59577500D01*
X198716300Y-61257500D02*
X198716300Y-62479500D01*
X198716300Y-58355500D02*
X198716300Y-59577500D01*
X198676300Y-61257500D02*
X198676300Y-62484500D01*
X198676300Y-58350500D02*
X198676300Y-59577500D01*
X198636300Y-61257500D02*
X198636300Y-62488500D01*
X198636300Y-58346500D02*
X198636300Y-59577500D01*
X198596300Y-61257500D02*
X198596300Y-62491500D01*
X198596300Y-58343500D02*
X198596300Y-59577500D01*
X198556300Y-61257500D02*
X198556300Y-62494500D01*
X198556300Y-58340500D02*
X198556300Y-59577500D01*
X198516300Y-61257500D02*
X198516300Y-62496500D01*
X198516300Y-58338500D02*
X198516300Y-59577500D01*
X198476300Y-61257500D02*
X198476300Y-62497500D01*
X198476300Y-58337500D02*
X198476300Y-59577500D01*
X198436300Y-61257500D02*
X198436300Y-62497500D01*
X198436300Y-58337500D02*
X198436300Y-59577500D01*
X196366499Y-59022500D02*
X196366499Y-59422500D01*
X196166499Y-59222500D02*
X196566499Y-59222500D01*
%TO.C,C3*%
X200556300Y-70417500D02*
G75*
G02*
X196316300Y-70417500I-2120000J0D01*
G01*
X196316300Y-70417500D02*
G75*
G02*
X200556300Y-70417500I2120000J0D01*
G01*
X200517300Y-70047500D02*
X200517300Y-70787500D01*
X200477300Y-69880500D02*
X200477300Y-70954500D01*
X200437300Y-69753500D02*
X200437300Y-71081500D01*
X200397300Y-69649500D02*
X200397300Y-71185500D01*
X200357300Y-69558500D02*
X200357300Y-71276500D01*
X200317300Y-69477500D02*
X200317300Y-71357500D01*
X200277300Y-69404500D02*
X200277300Y-71430500D01*
X200237300Y-69337500D02*
X200237300Y-71497500D01*
X200197300Y-69275500D02*
X200197300Y-71559500D01*
X200157300Y-69217500D02*
X200157300Y-71617500D01*
X200117300Y-69163500D02*
X200117300Y-71671500D01*
X200077300Y-69113500D02*
X200077300Y-71721500D01*
X200037300Y-69066500D02*
X200037300Y-71768500D01*
X199997300Y-71257500D02*
X199997300Y-71813500D01*
X199997300Y-69021500D02*
X199997300Y-69577500D01*
X199957300Y-71257500D02*
X199957300Y-71855500D01*
X199957300Y-68979500D02*
X199957300Y-69577500D01*
X199917300Y-71257500D02*
X199917300Y-71895500D01*
X199917300Y-68939500D02*
X199917300Y-69577500D01*
X199877300Y-71257500D02*
X199877300Y-71933500D01*
X199877300Y-68901500D02*
X199877300Y-69577500D01*
X199837300Y-71257500D02*
X199837300Y-71969500D01*
X199837300Y-68865500D02*
X199837300Y-69577500D01*
X199797300Y-71257500D02*
X199797300Y-72004500D01*
X199797300Y-68830500D02*
X199797300Y-69577500D01*
X199757300Y-71257500D02*
X199757300Y-72036500D01*
X199757300Y-68798500D02*
X199757300Y-69577500D01*
X199717300Y-71257500D02*
X199717300Y-72067500D01*
X199717300Y-68767500D02*
X199717300Y-69577500D01*
X199677300Y-71257500D02*
X199677300Y-72097500D01*
X199677300Y-68737500D02*
X199677300Y-69577500D01*
X199637300Y-71257500D02*
X199637300Y-72125500D01*
X199637300Y-68709500D02*
X199637300Y-69577500D01*
X199597300Y-71257500D02*
X199597300Y-72152500D01*
X199597300Y-68682500D02*
X199597300Y-69577500D01*
X199557300Y-71257500D02*
X199557300Y-72177500D01*
X199557300Y-68657500D02*
X199557300Y-69577500D01*
X199517300Y-71257500D02*
X199517300Y-72202500D01*
X199517300Y-68632500D02*
X199517300Y-69577500D01*
X199477300Y-71257500D02*
X199477300Y-72225500D01*
X199477300Y-68609500D02*
X199477300Y-69577500D01*
X199437300Y-71257500D02*
X199437300Y-72247500D01*
X199437300Y-68587500D02*
X199437300Y-69577500D01*
X199397300Y-71257500D02*
X199397300Y-72268500D01*
X199397300Y-68566500D02*
X199397300Y-69577500D01*
X199357300Y-71257500D02*
X199357300Y-72287500D01*
X199357300Y-68547500D02*
X199357300Y-69577500D01*
X199317300Y-71257500D02*
X199317300Y-72306500D01*
X199317300Y-68528500D02*
X199317300Y-69577500D01*
X199277300Y-71257500D02*
X199277300Y-72324500D01*
X199277300Y-68510500D02*
X199277300Y-69577500D01*
X199237300Y-71257500D02*
X199237300Y-72341500D01*
X199237300Y-68493500D02*
X199237300Y-69577500D01*
X199197300Y-71257500D02*
X199197300Y-72357500D01*
X199197300Y-68477500D02*
X199197300Y-69577500D01*
X199157300Y-71257500D02*
X199157300Y-72371500D01*
X199157300Y-68463500D02*
X199157300Y-69577500D01*
X199116300Y-71257500D02*
X199116300Y-72385500D01*
X199116300Y-68449500D02*
X199116300Y-69577500D01*
X199076300Y-71257500D02*
X199076300Y-72399500D01*
X199076300Y-68435500D02*
X199076300Y-69577500D01*
X199036300Y-71257500D02*
X199036300Y-72411500D01*
X199036300Y-68423500D02*
X199036300Y-69577500D01*
X198996300Y-71257500D02*
X198996300Y-72422500D01*
X198996300Y-68412500D02*
X198996300Y-69577500D01*
X198956300Y-71257500D02*
X198956300Y-72433500D01*
X198956300Y-68401500D02*
X198956300Y-69577500D01*
X198916300Y-71257500D02*
X198916300Y-72442500D01*
X198916300Y-68392500D02*
X198916300Y-69577500D01*
X198876300Y-71257500D02*
X198876300Y-72451500D01*
X198876300Y-68383500D02*
X198876300Y-69577500D01*
X198836300Y-71257500D02*
X198836300Y-72459500D01*
X198836300Y-68375500D02*
X198836300Y-69577500D01*
X198796300Y-71257500D02*
X198796300Y-72467500D01*
X198796300Y-68367500D02*
X198796300Y-69577500D01*
X198756300Y-71257500D02*
X198756300Y-72473500D01*
X198756300Y-68361500D02*
X198756300Y-69577500D01*
X198716300Y-71257500D02*
X198716300Y-72479500D01*
X198716300Y-68355500D02*
X198716300Y-69577500D01*
X198676300Y-71257500D02*
X198676300Y-72484500D01*
X198676300Y-68350500D02*
X198676300Y-69577500D01*
X198636300Y-71257500D02*
X198636300Y-72488500D01*
X198636300Y-68346500D02*
X198636300Y-69577500D01*
X198596300Y-71257500D02*
X198596300Y-72491500D01*
X198596300Y-68343500D02*
X198596300Y-69577500D01*
X198556300Y-71257500D02*
X198556300Y-72494500D01*
X198556300Y-68340500D02*
X198556300Y-69577500D01*
X198516300Y-71257500D02*
X198516300Y-72496500D01*
X198516300Y-68338500D02*
X198516300Y-69577500D01*
X198476300Y-71257500D02*
X198476300Y-72497500D01*
X198476300Y-68337500D02*
X198476300Y-69577500D01*
X198436300Y-71257500D02*
X198436300Y-72497500D01*
X198436300Y-68337500D02*
X198436300Y-69577500D01*
X196366499Y-69022500D02*
X196366499Y-69422500D01*
X196166499Y-69222500D02*
X196566499Y-69222500D01*
%TO.C,C4*%
X179556300Y-70417500D02*
G75*
G02*
X175316300Y-70417500I-2120000J0D01*
G01*
X175316300Y-70417500D02*
G75*
G02*
X179556300Y-70417500I2120000J0D01*
G01*
X179517300Y-70047500D02*
X179517300Y-70787500D01*
X179477300Y-69880500D02*
X179477300Y-70954500D01*
X179437300Y-69753500D02*
X179437300Y-71081500D01*
X179397300Y-69649500D02*
X179397300Y-71185500D01*
X179357300Y-69558500D02*
X179357300Y-71276500D01*
X179317300Y-69477500D02*
X179317300Y-71357500D01*
X179277300Y-69404500D02*
X179277300Y-71430500D01*
X179237300Y-69337500D02*
X179237300Y-71497500D01*
X179197300Y-69275500D02*
X179197300Y-71559500D01*
X179157300Y-69217500D02*
X179157300Y-71617500D01*
X179117300Y-69163500D02*
X179117300Y-71671500D01*
X179077300Y-69113500D02*
X179077300Y-71721500D01*
X179037300Y-69066500D02*
X179037300Y-71768500D01*
X178997300Y-71257500D02*
X178997300Y-71813500D01*
X178997300Y-69021500D02*
X178997300Y-69577500D01*
X178957300Y-71257500D02*
X178957300Y-71855500D01*
X178957300Y-68979500D02*
X178957300Y-69577500D01*
X178917300Y-71257500D02*
X178917300Y-71895500D01*
X178917300Y-68939500D02*
X178917300Y-69577500D01*
X178877300Y-71257500D02*
X178877300Y-71933500D01*
X178877300Y-68901500D02*
X178877300Y-69577500D01*
X178837300Y-71257500D02*
X178837300Y-71969500D01*
X178837300Y-68865500D02*
X178837300Y-69577500D01*
X178797300Y-71257500D02*
X178797300Y-72004500D01*
X178797300Y-68830500D02*
X178797300Y-69577500D01*
X178757300Y-71257500D02*
X178757300Y-72036500D01*
X178757300Y-68798500D02*
X178757300Y-69577500D01*
X178717300Y-71257500D02*
X178717300Y-72067500D01*
X178717300Y-68767500D02*
X178717300Y-69577500D01*
X178677300Y-71257500D02*
X178677300Y-72097500D01*
X178677300Y-68737500D02*
X178677300Y-69577500D01*
X178637300Y-71257500D02*
X178637300Y-72125500D01*
X178637300Y-68709500D02*
X178637300Y-69577500D01*
X178597300Y-71257500D02*
X178597300Y-72152500D01*
X178597300Y-68682500D02*
X178597300Y-69577500D01*
X178557300Y-71257500D02*
X178557300Y-72177500D01*
X178557300Y-68657500D02*
X178557300Y-69577500D01*
X178517300Y-71257500D02*
X178517300Y-72202500D01*
X178517300Y-68632500D02*
X178517300Y-69577500D01*
X178477300Y-71257500D02*
X178477300Y-72225500D01*
X178477300Y-68609500D02*
X178477300Y-69577500D01*
X178437300Y-71257500D02*
X178437300Y-72247500D01*
X178437300Y-68587500D02*
X178437300Y-69577500D01*
X178397300Y-71257500D02*
X178397300Y-72268500D01*
X178397300Y-68566500D02*
X178397300Y-69577500D01*
X178357300Y-71257500D02*
X178357300Y-72287500D01*
X178357300Y-68547500D02*
X178357300Y-69577500D01*
X178317300Y-71257500D02*
X178317300Y-72306500D01*
X178317300Y-68528500D02*
X178317300Y-69577500D01*
X178277300Y-71257500D02*
X178277300Y-72324500D01*
X178277300Y-68510500D02*
X178277300Y-69577500D01*
X178237300Y-71257500D02*
X178237300Y-72341500D01*
X178237300Y-68493500D02*
X178237300Y-69577500D01*
X178197300Y-71257500D02*
X178197300Y-72357500D01*
X178197300Y-68477500D02*
X178197300Y-69577500D01*
X178157300Y-71257500D02*
X178157300Y-72371500D01*
X178157300Y-68463500D02*
X178157300Y-69577500D01*
X178116300Y-71257500D02*
X178116300Y-72385500D01*
X178116300Y-68449500D02*
X178116300Y-69577500D01*
X178076300Y-71257500D02*
X178076300Y-72399500D01*
X178076300Y-68435500D02*
X178076300Y-69577500D01*
X178036300Y-71257500D02*
X178036300Y-72411500D01*
X178036300Y-68423500D02*
X178036300Y-69577500D01*
X177996300Y-71257500D02*
X177996300Y-72422500D01*
X177996300Y-68412500D02*
X177996300Y-69577500D01*
X177956300Y-71257500D02*
X177956300Y-72433500D01*
X177956300Y-68401500D02*
X177956300Y-69577500D01*
X177916300Y-71257500D02*
X177916300Y-72442500D01*
X177916300Y-68392500D02*
X177916300Y-69577500D01*
X177876300Y-71257500D02*
X177876300Y-72451500D01*
X177876300Y-68383500D02*
X177876300Y-69577500D01*
X177836300Y-71257500D02*
X177836300Y-72459500D01*
X177836300Y-68375500D02*
X177836300Y-69577500D01*
X177796300Y-71257500D02*
X177796300Y-72467500D01*
X177796300Y-68367500D02*
X177796300Y-69577500D01*
X177756300Y-71257500D02*
X177756300Y-72473500D01*
X177756300Y-68361500D02*
X177756300Y-69577500D01*
X177716300Y-71257500D02*
X177716300Y-72479500D01*
X177716300Y-68355500D02*
X177716300Y-69577500D01*
X177676300Y-71257500D02*
X177676300Y-72484500D01*
X177676300Y-68350500D02*
X177676300Y-69577500D01*
X177636300Y-71257500D02*
X177636300Y-72488500D01*
X177636300Y-68346500D02*
X177636300Y-69577500D01*
X177596300Y-71257500D02*
X177596300Y-72491500D01*
X177596300Y-68343500D02*
X177596300Y-69577500D01*
X177556300Y-71257500D02*
X177556300Y-72494500D01*
X177556300Y-68340500D02*
X177556300Y-69577500D01*
X177516300Y-71257500D02*
X177516300Y-72496500D01*
X177516300Y-68338500D02*
X177516300Y-69577500D01*
X177476300Y-71257500D02*
X177476300Y-72497500D01*
X177476300Y-68337500D02*
X177476300Y-69577500D01*
X177436300Y-71257500D02*
X177436300Y-72497500D01*
X177436300Y-68337500D02*
X177436300Y-69577500D01*
X175366499Y-69022500D02*
X175366499Y-69422500D01*
X175166499Y-69222500D02*
X175566499Y-69222500D01*
%TO.C,J1*%
X193746300Y-60417500D02*
X193746300Y-62477500D01*
X191626300Y-62477500D02*
X193746300Y-62477500D01*
X191626300Y-60417500D02*
X193746300Y-60417500D01*
X191626300Y-60417500D02*
X191626300Y-62477500D01*
X191626300Y-59417500D02*
X191626300Y-58357500D01*
X191626300Y-58357500D02*
X192686300Y-58357500D01*
%TO.C,J2*%
X183746300Y-63417500D02*
X183746300Y-65477500D01*
X181626300Y-65477500D02*
X183746300Y-65477500D01*
X181626300Y-63417500D02*
X183746300Y-63417500D01*
X181626300Y-63417500D02*
X181626300Y-65477500D01*
X181626300Y-62417500D02*
X181626300Y-61357500D01*
X181626300Y-61357500D02*
X182686300Y-61357500D01*
%TO.C,J6*%
X183746300Y-70417500D02*
X183746300Y-72477500D01*
X181626300Y-72477500D02*
X183746300Y-72477500D01*
X181626300Y-70417500D02*
X183746300Y-70417500D01*
X181626300Y-70417500D02*
X181626300Y-72477500D01*
X181626300Y-69417500D02*
X181626300Y-68357500D01*
X181626300Y-68357500D02*
X182686300Y-68357500D01*
%TO.C,J5*%
X193746300Y-70417500D02*
X193746300Y-72477500D01*
X191626300Y-72477500D02*
X193746300Y-72477500D01*
X191626300Y-70417500D02*
X193746300Y-70417500D01*
X191626300Y-70417500D02*
X191626300Y-72477500D01*
X191626300Y-69417500D02*
X191626300Y-68357500D01*
X191626300Y-68357500D02*
X192686300Y-68357500D01*
%TO.C,J11*%
X178246300Y-63417500D02*
X178246300Y-65477500D01*
X176126300Y-65477500D02*
X178246300Y-65477500D01*
X176126300Y-63417500D02*
X178246300Y-63417500D01*
X176126300Y-63417500D02*
X176126300Y-65477500D01*
X176126300Y-62417500D02*
X176126300Y-61357500D01*
X176126300Y-61357500D02*
X177186300Y-61357500D01*
%TO.C,U3*%
X87346300Y-113587500D02*
X87346300Y-134027500D01*
X87346300Y-134027500D02*
X92646300Y-134027500D01*
X88996300Y-113587500D02*
X87346300Y-113587500D01*
X92646300Y-113587500D02*
X90996300Y-113587500D01*
X92646300Y-134027500D02*
X92646300Y-113587500D01*
X90996300Y-113587500D02*
G75*
G02*
X88996300Y-113587500I-1000000J0D01*
G01*
%TO.C,U2*%
X109346300Y-105697500D02*
X109346300Y-126137500D01*
X109346300Y-126137500D02*
X114646300Y-126137500D01*
X110996300Y-105697500D02*
X109346300Y-105697500D01*
X114646300Y-105697500D02*
X112996300Y-105697500D01*
X114646300Y-126137500D02*
X114646300Y-105697500D01*
X112996300Y-105697500D02*
G75*
G02*
X110996300Y-105697500I-1000000J0D01*
G01*
%TO.C,U1*%
X98346300Y-105697500D02*
X98346300Y-126137500D01*
X98346300Y-126137500D02*
X103646300Y-126137500D01*
X99996300Y-105697500D02*
X98346300Y-105697500D01*
X103646300Y-105697500D02*
X101996300Y-105697500D01*
X103646300Y-126137500D02*
X103646300Y-105697500D01*
X101996300Y-105697500D02*
G75*
G02*
X99996300Y-105697500I-1000000J0D01*
G01*
%TO.C,SW1*%
X102436300Y-73917500D02*
X102436300Y-75417500D01*
X103686300Y-77917500D02*
X108186300Y-77917500D01*
X108186300Y-71417500D02*
X103686300Y-71417500D01*
X109436300Y-75417500D02*
X109436300Y-73917500D01*
%TO.C,RN1*%
X86426300Y-140017500D02*
X86426300Y-142817500D01*
X86426300Y-142817500D02*
X109626300Y-142817500D01*
X89136300Y-140017500D02*
X89136300Y-142817500D01*
X109626300Y-140017500D02*
X86426300Y-140017500D01*
X109626300Y-142817500D02*
X109626300Y-140017500D01*
%TO.C,R1*%
X138266300Y-140997500D02*
X142106300Y-140997500D01*
X138266300Y-142837500D02*
X142106300Y-142837500D01*
%TO.C,J17*%
X92126300Y-94857500D02*
X93186300Y-94857500D01*
X92126300Y-95917500D02*
X92126300Y-94857500D01*
X92126300Y-96917500D02*
X92126300Y-110977500D01*
X92126300Y-96917500D02*
X94246300Y-96917500D01*
X92126300Y-110977500D02*
X94246300Y-110977500D01*
X94246300Y-96917500D02*
X94246300Y-110977500D01*
%TO.C,J16*%
X199126300Y-125357500D02*
X200186300Y-125357500D01*
X199126300Y-126417500D02*
X199126300Y-125357500D01*
X199126300Y-127417500D02*
X199126300Y-141477500D01*
X199126300Y-127417500D02*
X201246300Y-127417500D01*
X199126300Y-141477500D02*
X201246300Y-141477500D01*
X201246300Y-127417500D02*
X201246300Y-141477500D01*
%TO.C,J15*%
X86626300Y-56357500D02*
X87686300Y-56357500D01*
X86626300Y-57417500D02*
X86626300Y-56357500D01*
X86626300Y-58417500D02*
X86626300Y-60477500D01*
X86626300Y-58417500D02*
X88746300Y-58417500D01*
X86626300Y-60477500D02*
X88746300Y-60477500D01*
X88746300Y-58417500D02*
X88746300Y-60477500D01*
%TO.C,J14*%
X86626300Y-63857500D02*
X87686300Y-63857500D01*
X86626300Y-64917500D02*
X86626300Y-63857500D01*
X86626300Y-65917500D02*
X86626300Y-69977500D01*
X86626300Y-65917500D02*
X88746300Y-65917500D01*
X86626300Y-69977500D02*
X88746300Y-69977500D01*
X88746300Y-65917500D02*
X88746300Y-69977500D01*
%TO.C,J13*%
X109626300Y-58477500D02*
X109626300Y-57417500D01*
X110686300Y-58477500D02*
X109626300Y-58477500D01*
X111686300Y-58477500D02*
X121746300Y-58477500D01*
X111686300Y-58477500D02*
X111686300Y-56357500D01*
X121746300Y-58477500D02*
X121746300Y-56357500D01*
X111686300Y-56357500D02*
X121746300Y-56357500D01*
%TO.C,J12*%
X124626300Y-58477500D02*
X124626300Y-57417500D01*
X125686300Y-58477500D02*
X124626300Y-58477500D01*
X126686300Y-58477500D02*
X136746300Y-58477500D01*
X126686300Y-58477500D02*
X126686300Y-56357500D01*
X136746300Y-58477500D02*
X136746300Y-56357500D01*
X126686300Y-56357500D02*
X136746300Y-56357500D01*
%TO.C,J10*%
X187126300Y-130857500D02*
X188186300Y-130857500D01*
X187126300Y-131917500D02*
X187126300Y-130857500D01*
X187126300Y-132917500D02*
X187126300Y-136977500D01*
X187126300Y-132917500D02*
X189246300Y-132917500D01*
X187126300Y-136977500D02*
X189246300Y-136977500D01*
X189246300Y-132917500D02*
X189246300Y-136977500D01*
%TO.C,J9*%
X182126300Y-130857500D02*
X183186300Y-130857500D01*
X182126300Y-131917500D02*
X182126300Y-130857500D01*
X182126300Y-132917500D02*
X182126300Y-136977500D01*
X182126300Y-132917500D02*
X184246300Y-132917500D01*
X182126300Y-136977500D02*
X184246300Y-136977500D01*
X184246300Y-132917500D02*
X184246300Y-136977500D01*
%TO.C,J8*%
X86626300Y-84857500D02*
X87686300Y-84857500D01*
X86626300Y-85917500D02*
X86626300Y-84857500D01*
X86626300Y-86917500D02*
X86626300Y-92977500D01*
X86626300Y-86917500D02*
X88746300Y-86917500D01*
X86626300Y-92977500D02*
X88746300Y-92977500D01*
X88746300Y-86917500D02*
X88746300Y-92977500D01*
%TO.C,J7*%
X86626300Y-72857500D02*
X87686300Y-72857500D01*
X86626300Y-73917500D02*
X86626300Y-72857500D01*
X86626300Y-74917500D02*
X86626300Y-80977500D01*
X86626300Y-74917500D02*
X88746300Y-74917500D01*
X86626300Y-80977500D02*
X88746300Y-80977500D01*
X88746300Y-74917500D02*
X88746300Y-80977500D01*
%TO.C,J4*%
X96626300Y-56357500D02*
X97686300Y-56357500D01*
X96626300Y-57417500D02*
X96626300Y-56357500D01*
X96626300Y-58417500D02*
X96626300Y-60477500D01*
X96626300Y-58417500D02*
X98746300Y-58417500D01*
X96626300Y-60477500D02*
X98746300Y-60477500D01*
X98746300Y-58417500D02*
X98746300Y-60477500D01*
%TO.C,J3*%
X91626300Y-56357500D02*
X92686300Y-56357500D01*
X91626300Y-57417500D02*
X91626300Y-56357500D01*
X91626300Y-58417500D02*
X91626300Y-60477500D01*
X91626300Y-58417500D02*
X93746300Y-58417500D01*
X91626300Y-60477500D02*
X93746300Y-60477500D01*
X93746300Y-58417500D02*
X93746300Y-60477500D01*
%TO.C,C6*%
X174631525Y-133442500D02*
X175131525Y-133442500D01*
X174881525Y-133192500D02*
X174881525Y-133692500D01*
X177436300Y-132337500D02*
X177436300Y-137497500D01*
X177476300Y-132337500D02*
X177476300Y-137497500D01*
X177516300Y-132338500D02*
X177516300Y-137496500D01*
X177556300Y-132339500D02*
X177556300Y-137495500D01*
X177596300Y-132341500D02*
X177596300Y-137493500D01*
X177636300Y-132344500D02*
X177636300Y-137490500D01*
X177676300Y-132348500D02*
X177676300Y-133877500D01*
X177676300Y-135957500D02*
X177676300Y-137486500D01*
X177716300Y-132352500D02*
X177716300Y-133877500D01*
X177716300Y-135957500D02*
X177716300Y-137482500D01*
X177756300Y-132356500D02*
X177756300Y-133877500D01*
X177756300Y-135957500D02*
X177756300Y-137478500D01*
X177796300Y-132361500D02*
X177796300Y-133877500D01*
X177796300Y-135957500D02*
X177796300Y-137473500D01*
X177836300Y-132367500D02*
X177836300Y-133877500D01*
X177836300Y-135957500D02*
X177836300Y-137467500D01*
X177876300Y-132374500D02*
X177876300Y-133877500D01*
X177876300Y-135957500D02*
X177876300Y-137460500D01*
X177916300Y-132381500D02*
X177916300Y-133877500D01*
X177916300Y-135957500D02*
X177916300Y-137453500D01*
X177956300Y-132389500D02*
X177956300Y-133877500D01*
X177956300Y-135957500D02*
X177956300Y-137445500D01*
X177996300Y-132397500D02*
X177996300Y-133877500D01*
X177996300Y-135957500D02*
X177996300Y-137437500D01*
X178036300Y-132406500D02*
X178036300Y-133877500D01*
X178036300Y-135957500D02*
X178036300Y-137428500D01*
X178076300Y-132416500D02*
X178076300Y-133877500D01*
X178076300Y-135957500D02*
X178076300Y-137418500D01*
X178116300Y-132426500D02*
X178116300Y-133877500D01*
X178116300Y-135957500D02*
X178116300Y-137408500D01*
X178157300Y-132437500D02*
X178157300Y-133877500D01*
X178157300Y-135957500D02*
X178157300Y-137397500D01*
X178197300Y-132449500D02*
X178197300Y-133877500D01*
X178197300Y-135957500D02*
X178197300Y-137385500D01*
X178237300Y-132462500D02*
X178237300Y-133877500D01*
X178237300Y-135957500D02*
X178237300Y-137372500D01*
X178277300Y-132475500D02*
X178277300Y-133877500D01*
X178277300Y-135957500D02*
X178277300Y-137359500D01*
X178317300Y-132489500D02*
X178317300Y-133877500D01*
X178317300Y-135957500D02*
X178317300Y-137345500D01*
X178357300Y-132503500D02*
X178357300Y-133877500D01*
X178357300Y-135957500D02*
X178357300Y-137331500D01*
X178397300Y-132519500D02*
X178397300Y-133877500D01*
X178397300Y-135957500D02*
X178397300Y-137315500D01*
X178437300Y-132535500D02*
X178437300Y-133877500D01*
X178437300Y-135957500D02*
X178437300Y-137299500D01*
X178477300Y-132552500D02*
X178477300Y-133877500D01*
X178477300Y-135957500D02*
X178477300Y-137282500D01*
X178517300Y-132569500D02*
X178517300Y-133877500D01*
X178517300Y-135957500D02*
X178517300Y-137265500D01*
X178557300Y-132588500D02*
X178557300Y-133877500D01*
X178557300Y-135957500D02*
X178557300Y-137246500D01*
X178597300Y-132607500D02*
X178597300Y-133877500D01*
X178597300Y-135957500D02*
X178597300Y-137227500D01*
X178637300Y-132627500D02*
X178637300Y-133877500D01*
X178637300Y-135957500D02*
X178637300Y-137207500D01*
X178677300Y-132649500D02*
X178677300Y-133877500D01*
X178677300Y-135957500D02*
X178677300Y-137185500D01*
X178717300Y-132670500D02*
X178717300Y-133877500D01*
X178717300Y-135957500D02*
X178717300Y-137164500D01*
X178757300Y-132693500D02*
X178757300Y-133877500D01*
X178757300Y-135957500D02*
X178757300Y-137141500D01*
X178797300Y-132717500D02*
X178797300Y-133877500D01*
X178797300Y-135957500D02*
X178797300Y-137117500D01*
X178837300Y-132742500D02*
X178837300Y-133877500D01*
X178837300Y-135957500D02*
X178837300Y-137092500D01*
X178877300Y-132768500D02*
X178877300Y-133877500D01*
X178877300Y-135957500D02*
X178877300Y-137066500D01*
X178917300Y-132795500D02*
X178917300Y-133877500D01*
X178917300Y-135957500D02*
X178917300Y-137039500D01*
X178957300Y-132822500D02*
X178957300Y-133877500D01*
X178957300Y-135957500D02*
X178957300Y-137012500D01*
X178997300Y-132852500D02*
X178997300Y-133877500D01*
X178997300Y-135957500D02*
X178997300Y-136982500D01*
X179037300Y-132882500D02*
X179037300Y-133877500D01*
X179037300Y-135957500D02*
X179037300Y-136952500D01*
X179077300Y-132913500D02*
X179077300Y-133877500D01*
X179077300Y-135957500D02*
X179077300Y-136921500D01*
X179117300Y-132946500D02*
X179117300Y-133877500D01*
X179117300Y-135957500D02*
X179117300Y-136888500D01*
X179157300Y-132980500D02*
X179157300Y-133877500D01*
X179157300Y-135957500D02*
X179157300Y-136854500D01*
X179197300Y-133016500D02*
X179197300Y-133877500D01*
X179197300Y-135957500D02*
X179197300Y-136818500D01*
X179237300Y-133053500D02*
X179237300Y-133877500D01*
X179237300Y-135957500D02*
X179237300Y-136781500D01*
X179277300Y-133091500D02*
X179277300Y-133877500D01*
X179277300Y-135957500D02*
X179277300Y-136743500D01*
X179317300Y-133132500D02*
X179317300Y-133877500D01*
X179317300Y-135957500D02*
X179317300Y-136702500D01*
X179357300Y-133174500D02*
X179357300Y-133877500D01*
X179357300Y-135957500D02*
X179357300Y-136660500D01*
X179397300Y-133218500D02*
X179397300Y-133877500D01*
X179397300Y-135957500D02*
X179397300Y-136616500D01*
X179437300Y-133264500D02*
X179437300Y-133877500D01*
X179437300Y-135957500D02*
X179437300Y-136570500D01*
X179477300Y-133312500D02*
X179477300Y-133877500D01*
X179477300Y-135957500D02*
X179477300Y-136522500D01*
X179517300Y-133363500D02*
X179517300Y-133877500D01*
X179517300Y-135957500D02*
X179517300Y-136471500D01*
X179557300Y-133417500D02*
X179557300Y-133877500D01*
X179557300Y-135957500D02*
X179557300Y-136417500D01*
X179597300Y-133474500D02*
X179597300Y-133877500D01*
X179597300Y-135957500D02*
X179597300Y-136360500D01*
X179637300Y-133534500D02*
X179637300Y-133877500D01*
X179637300Y-135957500D02*
X179637300Y-136300500D01*
X179677300Y-133598500D02*
X179677300Y-133877500D01*
X179677300Y-135957500D02*
X179677300Y-136236500D01*
X179717300Y-133666500D02*
X179717300Y-133877500D01*
X179717300Y-135957500D02*
X179717300Y-136168500D01*
X179757300Y-133739500D02*
X179757300Y-136095500D01*
X179797300Y-133819500D02*
X179797300Y-136015500D01*
X179837300Y-133906500D02*
X179837300Y-135928500D01*
X179877300Y-134002500D02*
X179877300Y-135832500D01*
X179917300Y-134112500D02*
X179917300Y-135722500D01*
X179957300Y-134240500D02*
X179957300Y-135594500D01*
X179997300Y-134399500D02*
X179997300Y-135435500D01*
X180037300Y-134633500D02*
X180037300Y-135201500D01*
X180056300Y-134917500D02*
G75*
G02*
X174816300Y-134917500I-2620000J0D01*
G01*
X174816300Y-134917500D02*
G75*
G02*
X180056300Y-134917500I2620000J0D01*
G01*
%TO.C,C5*%
X166943899Y-133722500D02*
X167343899Y-133722500D01*
X167143899Y-133522500D02*
X167143899Y-133922500D01*
X169213700Y-132837500D02*
X169213700Y-134077500D01*
X169213700Y-135757500D02*
X169213700Y-136997500D01*
X169253700Y-132837500D02*
X169253700Y-134077500D01*
X169253700Y-135757500D02*
X169253700Y-136997500D01*
X169293700Y-132838500D02*
X169293700Y-134077500D01*
X169293700Y-135757500D02*
X169293700Y-136996500D01*
X169333700Y-132840500D02*
X169333700Y-134077500D01*
X169333700Y-135757500D02*
X169333700Y-136994500D01*
X169373700Y-132843500D02*
X169373700Y-134077500D01*
X169373700Y-135757500D02*
X169373700Y-136991500D01*
X169413700Y-132846500D02*
X169413700Y-134077500D01*
X169413700Y-135757500D02*
X169413700Y-136988500D01*
X169453700Y-132850500D02*
X169453700Y-134077500D01*
X169453700Y-135757500D02*
X169453700Y-136984500D01*
X169493700Y-132855500D02*
X169493700Y-134077500D01*
X169493700Y-135757500D02*
X169493700Y-136979500D01*
X169533700Y-132861500D02*
X169533700Y-134077500D01*
X169533700Y-135757500D02*
X169533700Y-136973500D01*
X169573700Y-132867500D02*
X169573700Y-134077500D01*
X169573700Y-135757500D02*
X169573700Y-136967500D01*
X169613700Y-132875500D02*
X169613700Y-134077500D01*
X169613700Y-135757500D02*
X169613700Y-136959500D01*
X169653700Y-132883500D02*
X169653700Y-134077500D01*
X169653700Y-135757500D02*
X169653700Y-136951500D01*
X169693700Y-132892500D02*
X169693700Y-134077500D01*
X169693700Y-135757500D02*
X169693700Y-136942500D01*
X169733700Y-132901500D02*
X169733700Y-134077500D01*
X169733700Y-135757500D02*
X169733700Y-136933500D01*
X169773700Y-132912500D02*
X169773700Y-134077500D01*
X169773700Y-135757500D02*
X169773700Y-136922500D01*
X169813700Y-132923500D02*
X169813700Y-134077500D01*
X169813700Y-135757500D02*
X169813700Y-136911500D01*
X169853700Y-132935500D02*
X169853700Y-134077500D01*
X169853700Y-135757500D02*
X169853700Y-136899500D01*
X169893700Y-132949500D02*
X169893700Y-134077500D01*
X169893700Y-135757500D02*
X169893700Y-136885500D01*
X169934700Y-132963500D02*
X169934700Y-134077500D01*
X169934700Y-135757500D02*
X169934700Y-136871500D01*
X169974700Y-132977500D02*
X169974700Y-134077500D01*
X169974700Y-135757500D02*
X169974700Y-136857500D01*
X170014700Y-132993500D02*
X170014700Y-134077500D01*
X170014700Y-135757500D02*
X170014700Y-136841500D01*
X170054700Y-133010500D02*
X170054700Y-134077500D01*
X170054700Y-135757500D02*
X170054700Y-136824500D01*
X170094700Y-133028500D02*
X170094700Y-134077500D01*
X170094700Y-135757500D02*
X170094700Y-136806500D01*
X170134700Y-133047500D02*
X170134700Y-134077500D01*
X170134700Y-135757500D02*
X170134700Y-136787500D01*
X170174700Y-133066500D02*
X170174700Y-134077500D01*
X170174700Y-135757500D02*
X170174700Y-136768500D01*
X170214700Y-133087500D02*
X170214700Y-134077500D01*
X170214700Y-135757500D02*
X170214700Y-136747500D01*
X170254700Y-133109500D02*
X170254700Y-134077500D01*
X170254700Y-135757500D02*
X170254700Y-136725500D01*
X170294700Y-133132500D02*
X170294700Y-134077500D01*
X170294700Y-135757500D02*
X170294700Y-136702500D01*
X170334700Y-133157500D02*
X170334700Y-134077500D01*
X170334700Y-135757500D02*
X170334700Y-136677500D01*
X170374700Y-133182500D02*
X170374700Y-134077500D01*
X170374700Y-135757500D02*
X170374700Y-136652500D01*
X170414700Y-133209500D02*
X170414700Y-134077500D01*
X170414700Y-135757500D02*
X170414700Y-136625500D01*
X170454700Y-133237500D02*
X170454700Y-134077500D01*
X170454700Y-135757500D02*
X170454700Y-136597500D01*
X170494700Y-133267500D02*
X170494700Y-134077500D01*
X170494700Y-135757500D02*
X170494700Y-136567500D01*
X170534700Y-133298500D02*
X170534700Y-134077500D01*
X170534700Y-135757500D02*
X170534700Y-136536500D01*
X170574700Y-133330500D02*
X170574700Y-134077500D01*
X170574700Y-135757500D02*
X170574700Y-136504500D01*
X170614700Y-133365500D02*
X170614700Y-134077500D01*
X170614700Y-135757500D02*
X170614700Y-136469500D01*
X170654700Y-133401500D02*
X170654700Y-134077500D01*
X170654700Y-135757500D02*
X170654700Y-136433500D01*
X170694700Y-133439500D02*
X170694700Y-134077500D01*
X170694700Y-135757500D02*
X170694700Y-136395500D01*
X170734700Y-133479500D02*
X170734700Y-134077500D01*
X170734700Y-135757500D02*
X170734700Y-136355500D01*
X170774700Y-133521500D02*
X170774700Y-134077500D01*
X170774700Y-135757500D02*
X170774700Y-136313500D01*
X170814700Y-133566500D02*
X170814700Y-136268500D01*
X170854700Y-133613500D02*
X170854700Y-136221500D01*
X170894700Y-133663500D02*
X170894700Y-136171500D01*
X170934700Y-133717500D02*
X170934700Y-136117500D01*
X170974700Y-133775500D02*
X170974700Y-136059500D01*
X171014700Y-133837500D02*
X171014700Y-135997500D01*
X171054700Y-133904500D02*
X171054700Y-135930500D01*
X171094700Y-133977500D02*
X171094700Y-135857500D01*
X171134700Y-134058500D02*
X171134700Y-135776500D01*
X171174700Y-134149500D02*
X171174700Y-135685500D01*
X171214700Y-134253500D02*
X171214700Y-135581500D01*
X171254700Y-134380500D02*
X171254700Y-135454500D01*
X171294700Y-134547500D02*
X171294700Y-135287500D01*
X171333700Y-134917500D02*
G75*
G02*
X167093700Y-134917500I-2120000J0D01*
G01*
X167093700Y-134917500D02*
G75*
G02*
X171333700Y-134917500I2120000J0D01*
G01*
%TO.C,C2*%
X168166499Y-69222500D02*
X168566499Y-69222500D01*
X168366499Y-69022500D02*
X168366499Y-69422500D01*
X170436300Y-68337500D02*
X170436300Y-69577500D01*
X170436300Y-71257500D02*
X170436300Y-72497500D01*
X170476300Y-68337500D02*
X170476300Y-69577500D01*
X170476300Y-71257500D02*
X170476300Y-72497500D01*
X170516300Y-68338500D02*
X170516300Y-69577500D01*
X170516300Y-71257500D02*
X170516300Y-72496500D01*
X170556300Y-68340500D02*
X170556300Y-69577500D01*
X170556300Y-71257500D02*
X170556300Y-72494500D01*
X170596300Y-68343500D02*
X170596300Y-69577500D01*
X170596300Y-71257500D02*
X170596300Y-72491500D01*
X170636300Y-68346500D02*
X170636300Y-69577500D01*
X170636300Y-71257500D02*
X170636300Y-72488500D01*
X170676300Y-68350500D02*
X170676300Y-69577500D01*
X170676300Y-71257500D02*
X170676300Y-72484500D01*
X170716300Y-68355500D02*
X170716300Y-69577500D01*
X170716300Y-71257500D02*
X170716300Y-72479500D01*
X170756300Y-68361500D02*
X170756300Y-69577500D01*
X170756300Y-71257500D02*
X170756300Y-72473500D01*
X170796300Y-68367500D02*
X170796300Y-69577500D01*
X170796300Y-71257500D02*
X170796300Y-72467500D01*
X170836300Y-68375500D02*
X170836300Y-69577500D01*
X170836300Y-71257500D02*
X170836300Y-72459500D01*
X170876300Y-68383500D02*
X170876300Y-69577500D01*
X170876300Y-71257500D02*
X170876300Y-72451500D01*
X170916300Y-68392500D02*
X170916300Y-69577500D01*
X170916300Y-71257500D02*
X170916300Y-72442500D01*
X170956300Y-68401500D02*
X170956300Y-69577500D01*
X170956300Y-71257500D02*
X170956300Y-72433500D01*
X170996300Y-68412500D02*
X170996300Y-69577500D01*
X170996300Y-71257500D02*
X170996300Y-72422500D01*
X171036300Y-68423500D02*
X171036300Y-69577500D01*
X171036300Y-71257500D02*
X171036300Y-72411500D01*
X171076300Y-68435500D02*
X171076300Y-69577500D01*
X171076300Y-71257500D02*
X171076300Y-72399500D01*
X171116300Y-68449500D02*
X171116300Y-69577500D01*
X171116300Y-71257500D02*
X171116300Y-72385500D01*
X171157300Y-68463500D02*
X171157300Y-69577500D01*
X171157300Y-71257500D02*
X171157300Y-72371500D01*
X171197300Y-68477500D02*
X171197300Y-69577500D01*
X171197300Y-71257500D02*
X171197300Y-72357500D01*
X171237300Y-68493500D02*
X171237300Y-69577500D01*
X171237300Y-71257500D02*
X171237300Y-72341500D01*
X171277300Y-68510500D02*
X171277300Y-69577500D01*
X171277300Y-71257500D02*
X171277300Y-72324500D01*
X171317300Y-68528500D02*
X171317300Y-69577500D01*
X171317300Y-71257500D02*
X171317300Y-72306500D01*
X171357300Y-68547500D02*
X171357300Y-69577500D01*
X171357300Y-71257500D02*
X171357300Y-72287500D01*
X171397300Y-68566500D02*
X171397300Y-69577500D01*
X171397300Y-71257500D02*
X171397300Y-72268500D01*
X171437300Y-68587500D02*
X171437300Y-69577500D01*
X171437300Y-71257500D02*
X171437300Y-72247500D01*
X171477300Y-68609500D02*
X171477300Y-69577500D01*
X171477300Y-71257500D02*
X171477300Y-72225500D01*
X171517300Y-68632500D02*
X171517300Y-69577500D01*
X171517300Y-71257500D02*
X171517300Y-72202500D01*
X171557300Y-68657500D02*
X171557300Y-69577500D01*
X171557300Y-71257500D02*
X171557300Y-72177500D01*
X171597300Y-68682500D02*
X171597300Y-69577500D01*
X171597300Y-71257500D02*
X171597300Y-72152500D01*
X171637300Y-68709500D02*
X171637300Y-69577500D01*
X171637300Y-71257500D02*
X171637300Y-72125500D01*
X171677300Y-68737500D02*
X171677300Y-69577500D01*
X171677300Y-71257500D02*
X171677300Y-72097500D01*
X171717300Y-68767500D02*
X171717300Y-69577500D01*
X171717300Y-71257500D02*
X171717300Y-72067500D01*
X171757300Y-68798500D02*
X171757300Y-69577500D01*
X171757300Y-71257500D02*
X171757300Y-72036500D01*
X171797300Y-68830500D02*
X171797300Y-69577500D01*
X171797300Y-71257500D02*
X171797300Y-72004500D01*
X171837300Y-68865500D02*
X171837300Y-69577500D01*
X171837300Y-71257500D02*
X171837300Y-71969500D01*
X171877300Y-68901500D02*
X171877300Y-69577500D01*
X171877300Y-71257500D02*
X171877300Y-71933500D01*
X171917300Y-68939500D02*
X171917300Y-69577500D01*
X171917300Y-71257500D02*
X171917300Y-71895500D01*
X171957300Y-68979500D02*
X171957300Y-69577500D01*
X171957300Y-71257500D02*
X171957300Y-71855500D01*
X171997300Y-69021500D02*
X171997300Y-69577500D01*
X171997300Y-71257500D02*
X171997300Y-71813500D01*
X172037300Y-69066500D02*
X172037300Y-71768500D01*
X172077300Y-69113500D02*
X172077300Y-71721500D01*
X172117300Y-69163500D02*
X172117300Y-71671500D01*
X172157300Y-69217500D02*
X172157300Y-71617500D01*
X172197300Y-69275500D02*
X172197300Y-71559500D01*
X172237300Y-69337500D02*
X172237300Y-71497500D01*
X172277300Y-69404500D02*
X172277300Y-71430500D01*
X172317300Y-69477500D02*
X172317300Y-71357500D01*
X172357300Y-69558500D02*
X172357300Y-71276500D01*
X172397300Y-69649500D02*
X172397300Y-71185500D01*
X172437300Y-69753500D02*
X172437300Y-71081500D01*
X172477300Y-69880500D02*
X172477300Y-70954500D01*
X172517300Y-70047500D02*
X172517300Y-70787500D01*
X172556300Y-70417500D02*
G75*
G02*
X168316300Y-70417500I-2120000J0D01*
G01*
X168316300Y-70417500D02*
G75*
G02*
X172556300Y-70417500I2120000J0D01*
G01*
%TO.C,A1*%
X118766300Y-107637500D02*
X118766300Y-119317500D01*
X118766300Y-119317500D02*
X125116300Y-119317500D01*
X123216300Y-78427500D02*
X123216300Y-87567500D01*
X123216300Y-87567500D02*
X125116300Y-87567500D01*
X125116300Y-75247500D02*
X125116300Y-78427500D01*
X125116300Y-78427500D02*
X123216300Y-78427500D01*
X125116300Y-87567500D02*
X125116300Y-107637500D01*
X125116300Y-107637500D02*
X118766300Y-107637500D01*
X125116300Y-119317500D02*
X125116300Y-128847500D01*
X125116300Y-128847500D02*
X189766300Y-128847500D01*
X189766300Y-128847500D02*
X191416300Y-127197500D01*
X191416300Y-75247500D02*
X125116300Y-75247500D01*
X191416300Y-77917500D02*
X191416300Y-75247500D01*
X191416300Y-115767500D02*
X193956300Y-113227500D01*
X191416300Y-127197500D02*
X191416300Y-115767500D01*
X193956300Y-80457500D02*
X191416300Y-77917500D01*
X193956300Y-113227500D02*
X193956300Y-80457500D01*
%TD*%
M02*
